<?xml version="1.0" encoding="UTF-8"?>
<svg id="Layer_1" data-name="Layer 1" xmlns="http://www.w3.org/2000/svg" viewBox="0 0 504 360">
  <defs>
    <style>
      .cls-1 {
        fill: #444545;
      }

      .cls-1, .cls-2, .cls-3, .cls-4, .cls-5 {
        stroke-width: 0px;
      }

      .cls-2 {
        fill: #262626;
      }

      .cls-3, .cls-6 {
        fill: none;
      }

      .cls-6 {
        stroke: #444545;
        stroke-miterlimit: 10;
      }

      .cls-4 {
        fill: #fff;
      }

      .cls-5 {
        fill: #323333;
      }
    </style>
  </defs>
  <rect class="cls-4" width="504" height="360"/>
  <g>
    <g>
      <path class="cls-5" d="M360.76,27.77c-14.72-8.86-29.09-14.71-46.34-15.47,2.45,1.24,3.67,1.89,6.11,3.28,7.58,4.33,11.36,6.86,18.82,13.02-.41,6.42-.61,9.63-1.02,16.05-.07,1.05-.1,1.57-.17,2.62,8.36,2.93,12.5,4.95,20.68,10.62-.9-1.72-1.34-2.56-2.24-4.24-4.49-8.36-6.75-12.27-11.3-19.67,5.12-2.51,7.67-3.56,12.74-5.13,1.09-.46,1.63-.68,2.71-1.09Z"/>
      <path class="cls-1" d="M337.33,60.44c.08-1.29.12-1.93.2-3.22.64-10.06.96-15.09,1.59-25.14.09-1.39.13-2.09.22-3.48-59.13-15.79-115.12,23.37-174.24,7.58-.09,1.39-.13,2.09-.22,3.48-.64,10.06-.95,15.09-1.59,25.14-.08,1.29-.12,1.93-.2,3.22,59.13,15.79,115.12-23.37,174.24-7.58Z"/>
      <path class="cls-5" d="M158.78,36.7c-5.21,3.08-7.81,4.41-12.96,6.52-1.03.42-1.55.63-2.58,1.01,8.18,5.66,12.33,7.69,20.68,10.62.07-1.05.1-1.58.17-2.62.41-6.42.61-9.63,1.02-16.05,7.91-.77,11.9-1.71,19.92-4.31,2.58-.84,3.87-1.3,6.46-2.29-17.25-.76-31.62-6.61-46.34-15.47.94,1.82,1.41,2.71,2.36,4.48,4.48,7.72,6.73,11.32,11.27,18.11Z"/>
      <path class="cls-3" d="M314.42,12.3c8.86,4.47,17.23,9.95,24.93,16.3"/>
      <g>
        <path class="cls-2" d="M171.9,38.25c7.49,1.94,11.27,2.42,18.86,2.79.21-3.36.32-5.04.53-8.4.08-1.22.12-1.83.19-3.05-8.49,3.31-17.35,5.66-26.38,6.6,2.71.95,4.07,1.36,6.79,2.06Z"/>
        <path class="cls-2" d="M339.35,28.6c-7.7-6.36-16.07-11.84-24.93-16.3-.08,1.22-.12,1.83-.19,3.05-.21,3.36-.32,5.04-.53,8.4,7.59.37,11.37.85,18.86,2.79,2.73.7,4.08,1.11,6.79,2.06Z"/>
      </g>
    </g>
    <g>
      <path class="cls-4" d="M196.86,57.98c.18,1.65.36,3.3.53,4.94.22,2.03.76,2.73,2.21,3.58,0,.02,0,.04,0,.06-3.08.05-6.16-.02-9.24-.21,0-.02,0-.04,0-.06.99-.78,1.07-1.5.84-3.58-.52-4.86-1.05-9.73-1.57-14.61-.22-2.08-.45-2.81-1.63-3.75,0-.02,0-.04,0-.06,3.16.27,6.32.4,9.48.4,4.7,0,8.09,2.29,8.53,6.37.45,4.09-2.4,6.86-7.04,6.91-.71,0-1.42,0-2.13,0ZM197.3,57.2c2.29,0,3.15-2.63,2.79-5.9-.35-3.28-1.78-5.84-4.06-5.87-.18,0-.35,0-.52,0,.42,3.93.85,7.85,1.27,11.77.17,0,.35,0,.52,0Z"/>
      <path class="cls-4" d="M206.59,58.53c-.53-4.88,2.43-8.23,6.42-8.64,3.95-.41,7.64,2.24,8.17,7.08.53,4.79-2.47,8.45-6.42,8.9-3.99.46-7.64-2.49-8.16-7.33ZM215.33,57.73c-.54-4.97-1.13-7.44-2.27-7.32-1.14.12-1.18,2.65-.63,7.63.54,4.95,1.12,7.42,2.27,7.29,1.14-.13,1.18-2.67.64-7.61Z"/>
      <path class="cls-4" d="M224.98,50.54c.14,1.23.88,1.68,3.27,2.24,3.39.76,5.09,1.87,5.41,4.78.34,3.12-1.74,5.71-5.01,6.28-1.82.31-2.91-.13-3.9.02-.68.11-1.05.48-1.41.88-.31-1.99-.63-3.99-.94-5.98.02,0,.04,0,.06,0,1.88,3.06,3.97,4.94,5.95,4.6,1.3-.22,1.89-1.18,1.75-2.37-.14-1.29-.92-1.74-2.89-2.19-3.33-.79-5.06-1.95-5.39-4.96-.32-2.92,1.68-5.3,4.46-5.76,1.61-.27,2.61.25,3.57.08.65-.12.99-.43,1.44-.98.19,1.75.39,3.49.58,5.24-.02,0-.04,0-.06.01-1.57-2.53-3.39-4.17-5.31-3.86-1.05.17-1.68.99-1.58,1.98Z"/>
      <path class="cls-4" d="M244.16,55.48c-.06,3.14-1.15,5.62-4.08,6.2-2.63.53-4.56-.73-4.93-4.32-.33-3.2-.66-6.4-1-9.6-.36.07-.72.14-1.08.2-.02-.15-.03-.31-.05-.46,2.43-1.11,4.88-3.5,5.65-6.84.1-.02.21-.04.31-.06.2,1.77.39,3.55.59,5.32,1.06-.21,2.12-.42,3.18-.64-.02.27-.05.53-.07.8-1.01.2-2.02.41-3.03.61.36,3.29.73,6.59,1.09,9.88.17,1.5.61,2.13,1.54,1.94.9-.18,1.48-1.15,1.56-3.01.1-.01.21-.02.31-.03Z"/>
      <path class="cls-4" d="M264.91,42.07s-.08.02-.12.02c-1.85-3.59-3.66-6.55-5.88-6.11-2.47.5-3.15,4.92-2.6,9.87.64,5.75,2.9,8.76,5.83,8.19,1.67-.32,3.15-1.45,3.8-4.41.06,0,.13.02.19.03-.04,4.17-2.6,7.26-6.34,8-5.1,1.02-9.24-2.43-9.93-8.64-.79-7.12,3.11-12.5,8.45-13.58,1.95-.39,3.14.16,4.1-.03.65-.13,1.03-.39,1.46-1.06.35,2.57.69,5.14,1.04,7.71Z"/>
      <path class="cls-4" d="M282.29,52.3c-.45.99-1.78,1.75-3.23,1.96-1.95.27-3.21-.41-3.82-1.91-.05-.14-.09-.28-.14-.42-.3,1.86-1.51,3.11-3.64,3.47-2.13.36-3.92-.69-4.18-3.11-.35-3.22,2.39-4.66,5.34-5.87.57-.24,1.14-.48,1.71-.72-.15-1.37-.3-2.74-.45-4.12-.14-1.26-.54-2.01-1.37-1.87-.77.13-1.14,1.1-1.01,2.29.15,1.32.64,1.83,1.23,1.73.09-.02.21-.07.33-.15-.21,1.22-1.27,2.18-2.75,2.43-1.64.28-2.89-.49-3.06-2.08-.27-2.45,1.9-4.23,5.27-4.8,3.8-.63,6.73.04,7.17,4.04.18,1.63.43,4.22.79,7.46.11,1.05.36,1.86,1.35,1.73.16-.02.31-.07.48-.18,0,.03,0,.06.01.09ZM273.93,46.49c-1.16.62-1.64,1.93-1.42,3.92.18,1.63.66,2.55,1.37,2.43.83-.13,1.07-1.39.91-2.9-.14-1.23-.27-2.46-.41-3.69-.15.08-.3.15-.45.23Z"/>
      <path class="cls-4" d="M290.8,41.63c-.1-.93-.6-1.52-1.56-1.44-1.05.09-1.78,1.38-1.53,3.7.21,1.92.42,3.84.63,5.76.22,2.04.56,2.54,1.52,3.09,0,.02,0,.04,0,.06-2.53.2-5.07.47-7.6.78,0-.02,0-.04,0-.06.7-.77.74-1.28.51-3.31-.32-2.88-.63-5.76-.95-8.64-.24-2.19-.44-2.63-1.36-3.23,0-.02,0-.04,0-.06,2.18-.29,4.37-.54,6.55-.76.14,1.3.28,2.6.43,3.9.18-2.33,1.18-4.37,3.28-4.53,1.79-.13,3.08,1.18,3.28,2.98.24,2.24-1.11,3.52-2.74,3.64-.62.04-1.04-.11-1.21-.22.5-.26.84-.85.75-1.65Z"/>
      <path class="cls-4" d="M302.36,32.39c-.24-2.22-.41-2.69-1.36-3.41,0-.02,0-.04,0-.06,2.18,0,4.37.05,6.55.17.72,6.71,1.44,13.42,2.16,20.15.22,2.08.38,2.68,1.23,3.44,0,.02,0,.04,0,.06-2.14-.18-4.28-.3-6.43-.36-.12-1.13-.24-2.26-.36-3.39-.24,2.34-1.52,3.65-3.59,3.66-2.9.01-5.31-2.96-5.83-7.78-.54-5,1.34-8.31,4.46-8.37,1.88-.03,3.22.86,3.93,2.91-.25-2.34-.5-4.68-.76-7.01ZM303.86,46.36c-.14-1.28-.28-2.57-.42-3.85-.3-2.79-1.18-4.37-2.05-4.37-1.08,0-1.29,2.1-.81,6.54.39,3.63,1.06,5.53,2.14,5.54.87.01,1.39-1.44,1.13-3.86Z"/>
    </g>
  </g>
  <path class="cls-1" d="M239.97,116.16c2.69-10.47,11.07-22.51,21.76-16.88,4.99,2.63,8.37,8.12,10.22,13.85,1.13,3.49,1.31,6.95,2.01,10.51.29-9.39.3-11.88.02-7.47-.05,1.02-.14,2.03-.26,3.03-.2,1.83-.5,3.65-.85,5.44-2.6,13.18-8.88,27.27-16.76,37.41-3.13,4.03-7.45,7.75-12.43,6.22-4.99-1.53-7.33-7.01-7.7-12.49.02,2.11.05,4.21.07,6.32.05,13.06.34,3.39,2.63-.42,1.38-2.3,3.33-4.1,5.81-4.55,5.22-.95,8.46,3.75,11.4,7.79,5.85,8.01,14.45,16.48,15.39,27.49l-.04-1.17c-.02-2.15-.05-4.3-.07-6.45.41-6.56.35-8.55-.19-5.95-.17.38-.17.88-.35,1.28-.34.78-.62,1.57-1.01,2.32-.97,1.86-2.24,3.52-3.56,5.08-3.05,3.6-6.55,6.69-10.03,9.72-6.56,5.7-13.32,10.76-17.68,18.92-5.16,9.66-8.07,20.9-8.37,32.21-.32,12.12-.83,24.91,2.91,36.47,3,9.26,9.25,20.02,18.71,21.08,5.77.64,10.38-3.4,12.56-9.25s1.48-12.27,1.48-18.24c0-5.5.38-11.22-2.41-16.04-2.1-3.63-5.91-6.56-9.85-5.37-9.94,2.99-9.87,19.72-9.88,28.78,0,5.35-.69,11.43,1.02,16.55,1.49,4.48,3.97,8.58,6.41,12.45,4.83,7.68,10.27,15.05,16.15,21.73-.7-.79.08-7.34.08-8.6,0-1.47.87-7.52-.08-8.6-4.05-4.6-7.81-9.56-11.39-14.63-4.12-5.83-8.59-12.13-11.04-19.16-.41-1.18-.58-2.41-.93-3.59,2.61,8.85-.59,14.29.27,8.44.18-1.2.4-2.39.69-3.55,1.06-4.19,2.92-8.7,6.18-11.22,2.79-2.15,6.05-2.08,8.88-.02,1.4,1.02,2.58,2.44,3.49,4.01,2.47,4.28,2.2,12.84,2.26-2.87l.07-4.26c-.52,7.35-4.17,15.33-11.28,16.24-6.07.78-11.58-3.51-15.28-8.59-4.11-5.66-6.66-12.75-7.99-19.89-.3-1.64-.43-3.31-.72-4.95-.97-5.58-.31,8.72-.25,8.24.17-1.31.17-2.69.33-4.01.5-4.17,1.32-8.35,2.42-12.37,1.76-6.43,4.5-12.98,8.17-18.29,3.01-4.37,7.27-7.68,11.12-11,7.3-6.28,18.89-13.86,19.24-25.53.21-7.07,1.14-15.66-1.16-22.43-2.15-6.33-6.32-11.68-10.18-16.74-3.4-4.46-7-11.62-12.36-13.03-6.42-1.68-10.46,5.33-11.42,11.63-.56,3.69-.32,7.6-.32,11.31s-.24,7.61.17,11.32c.7,6.22,4.84,12.06,10.78,11.47,7.04-.7,11.77-9.82,15.1-15.89,4-7.3,7.57-14.97,9.78-23.23,2.48-9.23,2.52-18.49,2.51-28.05-.01-8.91.04-18.03-3.6-26.17-3.1-6.95-9.47-13.27-16.76-11.56-7.47,1.75-11.93,10.33-13.91,18.03-.63,2.45-.08,6.06-.08,8.6s.7,6.17.08,8.6h0Z"/>
  <g>
    <line class="cls-6" x1="296.64" y1="219.5" x2="477.38" y2="219.5"/>
    <line class="cls-6" x1="296.64" y1="248.51" x2="477.38" y2="248.51"/>
    <line class="cls-6" x1="296.64" y1="277.52" x2="477.38" y2="277.52"/>
    <line class="cls-6" x1="296.64" y1="306.53" x2="477.38" y2="306.53"/>
    <line class="cls-6" x1="296.64" y1="190.49" x2="477.38" y2="190.49"/>
  </g>
</svg>