<?xml version="1.0" encoding="UTF-8"?>
<svg id="Layer_1" data-name="Layer 1" xmlns="http://www.w3.org/2000/svg" viewBox="0 0 504 314.64">
  <defs>
    <style>
      .cls-1 {
        fill: #231f20;
        stroke-width: 0px;
      }
    </style>
  </defs>
  <path class="cls-1" d="M106.39,143.04c9.46,0,17.67-6.07,20.53-16.25h-.18c-2.14,1.79-3.75,2.32-6.78,2.32-6.43,0-12.14-6.25-12.14-17.67,0-12.14,5.53-21.42,14.28-21.42,10.35,0,13.03,10.53,13.03,24.46s-2.08,26.27-9.99,41.53h28c9.08-9.63,13.76-19.94,13.76-32.25,0-25.89-21.24-36.95-44.63-36.95-21.07,0-37.13,12.14-37.13,32.13,0,14.82,9.1,24.1,21.24,24.1Z"/>
  <path class="cls-1" d="M210.12,156.01c0-1.61,0-3.25,0-4.94,0-44.09,1.61-60.88,13.21-60.88s13.03,16.78,13.03,60.88c0,1.69,0,3.33,0,4.94h36.65c.08-1.63.13-3.27.13-4.94,0-37.13-19.28-64.27-49.81-64.27s-49.81,27.13-49.81,64.27c0,1.67.05,3.31.13,4.94h36.48Z"/>
  <path class="cls-1" d="M297.94,143.04c9.46,0,17.67-6.07,20.53-16.25h-.18c-2.14,1.79-3.75,2.32-6.78,2.32-6.43,0-12.14-6.25-12.14-17.67,0-12.14,5.53-21.42,14.28-21.42,10.35,0,13.03,10.53,13.03,24.46s-2.08,26.27-9.99,41.53h28c9.08-9.63,13.76-19.94,13.76-32.25,0-25.89-21.24-36.95-44.63-36.95-21.07,0-37.13,12.14-37.13,32.13,0,14.82,9.1,24.1,21.24,24.1Z"/>
  <path class="cls-1" d="M391.66,142.45c8.57,0,13.86,5.01,16.64,13.56h32.96c-5.69-14.1-19.4-22.49-36.4-22.49-13.21,0-22.14,4.82-28.03,10.89l3.21-31.42c7.14,3.04,23.03,6.43,32.49,6.43,22.49,0,28.38-15.53,28.38-37.31h-.54c-6.07,7.32-14.1,8.03-26.78,8.03-8.93,0-23.74-1.07-34.99-2.86l-6.96,66.94h.18c4.82-6.43,12.85-11.78,19.82-11.78Z"/>
  <path class="cls-1" d="M78.61,196.68c-6.17,6.26-10.23,13.1-3.37,15.57,1.85.67,3.86.75,5.8.37,26.17-5.1,95.5-51.78,92.38,3.26-.12,2.13-1.06,4.19-2.73,5.51-2.69,2.13-6.7,3.2-9.98,2.47,23.57-10.54-1.47-18.1-14.96-15.55-23.78,5.22-74.6,45.9-88.24,8.71-10.71-30.28,38.29-42.67,66.05-50.13l27.78-.52s-54.56,11.87-72.73,30.31Z"/>
  <path class="cls-1" d="M442.91,167.89h-32.98c10.65,5,18.75,10.34,21.24,13.63,10.09,12.18,3.44,33.53-7.15,19.57l-4-5.86c-23.26-33.82-72.57-60.94-61.57,12.15,3.45-4.97,4.14-22.87,18.18-20.54,23.38-.07,33.33,52.74,57.74,34.63,12.58-13.05,18.67-39.44,8.54-53.58Z"/>
  <path class="cls-1" d="M269.14,196.68c-6.17,6.26-10.23,13.1-3.37,15.57,1.85.67,3.86.75,5.8.37,26.17-5.1,95.5-51.78,92.38,3.26-.12,2.13-1.06,4.19-2.73,5.51-2.69,2.13-6.7,3.2-9.98,2.47,23.57-10.54-1.47-18.1-14.96-15.55-23.78,5.22-74.6,45.9-88.24,8.71-10.71-30.28,38.29-42.67,66.05-50.13l27.78-.52s-54.56,11.87-72.73,30.31Z"/>
  <path class="cls-1" d="M173.51,167.88h35.83s-28.3,14.15-8.49,29.32c7.43,5.69,13.55,6.28,18.31,4.8,7.32-2.29,11.77-7.48,10.8-15.09-.82-6.39-.6-17.58,7.16-19.04h36s-40.37,9.8-30.34,28.18c10.03,18.38-26.5,45.9-54.53,18.89,0,0-10.58-9.88-10.42-25.85.06-5.84-2.17-14.48-3.94-20.04l-.38-1.18Z"/>
</svg>