<?xml version="1.0" encoding="UTF-8"?>
<svg id="Layer_1" data-name="Layer 1" xmlns="http://www.w3.org/2000/svg" viewBox="0 0 504 360">
  <defs>
    <style>
      .cls-1, .cls-2 {
        stroke-width: .84px;
      }

      .cls-1, .cls-2, .cls-3 {
        stroke: #231f20;
        stroke-linecap: round;
        stroke-linejoin: round;
      }

      .cls-1, .cls-4 {
        fill: none;
      }

      .cls-5 {
        fill: #96c93d;
      }

      .cls-5, .cls-4, .cls-6 {
        stroke-width: 0px;
      }

      .cls-2, .cls-3 {
        fill: #fff;
      }

      .cls-6 {
        fill: #3462ae;
      }
    </style>
  </defs>
  <rect class="cls-6" x="72" y="-72" width="360" height="504" transform="translate(432 -72) rotate(90)"/>
  <g>
    <g>
      <path class="cls-5" d="M138.84,66.41c-1.13.14-1.85,2.23-1.45,5.46l.64,5.16c.46,3.69,1.73,5.71,2.91,5.56,1.47-.18,1.66-3.1.92-9.02-.61-4.91-1.55-7.35-3.02-7.16Z"/>
      <path class="cls-5" d="M116.95,81.15c.28,2.22.95,3.5,1.91,3.38,1.13-.14,1.43-1.84,1.18-3.9l-.63-5.03-.6.29c-1.56.79-2.2,2.53-1.86,5.26Z"/>
      <path class="cls-5" d="M160.74,63.68c-1.13.14-1.85,2.23-1.45,5.46l.64,5.16c.46,3.69,1.73,5.71,2.91,5.56,1.47-.18,1.66-3.1.92-9.02-.61-4.91-1.55-7.35-3.02-7.16Z"/>
      <path class="cls-5" d="M67.63,47.39l8.09,64.96,127.86-15.92-8.09-64.96-127.86,15.92ZM105.89,59.05c-1.33,1.32-1.38,2.3-1.03,5.07l2.42,19.47c.34,2.77.63,3.71,2.24,4.66v.08s-11.74,1.46-11.74,1.46v-.08c1.32-1.32,1.36-2.3,1.02-5.07l-1.2-9.65-6.13.76,1.2,9.65c.34,2.77.67,3.71,2.28,4.66v.08s-11.78,1.47-11.78,1.47v-.08c1.36-1.32,1.41-2.31,1.06-5.08l-2.42-19.47c-.34-2.77-.63-3.71-2.28-4.66v-.08s11.78-1.47,11.78-1.47v.08c-1.32,1.32-1.41,2.31-1.06,5.08l1.07,8.56,6.13-.76-1.07-8.56c-.34-2.77-.63-3.71-2.24-4.66v-.08s11.74-1.46,11.74-1.46v.08ZM125.94,86.63c-2.64.33-4.38-.65-5.24-2.71l-.2-.57c-.37,2.52-1.99,4.17-4.89,4.53-2.89.36-5.35-1.21-5.76-4.52-.55-4.41,3.15-6.14,7.15-7.62l2.32-.89-.7-5.62c-.21-1.72-.77-2.76-1.9-2.62-1.05.13-1.53,1.43-1.32,3.06.22,1.8.91,2.53,1.71,2.43.13-.02.29-.08.45-.18-.26,1.65-1.68,2.89-3.7,3.14-2.22.28-3.94-.87-4.21-3.05-.42-3.36,2.5-5.59,7.07-6.16,5.16-.64,9.16.31,9.84,5.76.28,2.22.67,5.75,1.22,10.16.18,1.43.53,2.53,1.87,2.37.21-.03.41-.09.65-.25l.02.13c-.6,1.35-2.39,2.39-4.36,2.63ZM143.99,84.47c-2.56.32-4.38-.65-5.44-3.33l1.02,8.18c.34,2.77.78,3.52,2.14,4.21v.08s-10.31,1.29-10.31,1.29v-.08c.97-1.06.96-1.78.62-4.55l-2.6-20.85c-.37-2.98-.62-3.59-1.87-4.41v-.08s8.84-1.1,8.84-1.1l.56,4.53c.32-3.24,2.03-5.28,4.84-5.63,3.9-.49,7.22,3.28,8.03,9.78s-1.64,11.45-5.84,11.97ZM165.89,81.74c-2.56.32-4.38-.65-5.44-3.33l1.02,8.18c.34,2.77.78,3.52,2.14,4.21v.08s-10.31,1.29-10.31,1.29v-.08c.97-1.06.96-1.78.62-4.55l-2.6-20.85c-.37-2.98-.62-3.59-1.87-4.41v-.08s8.84-1.1,8.84-1.1l.56,4.53c.32-3.24,2.03-5.28,4.84-5.63,3.9-.49,7.22,3.28,8.03,9.78.84,6.75-1.64,11.45-5.84,11.97ZM188.67,57.39c-1.07,1.37-1.55,2.28-2.13,4.82l-4.67,21.71c-.7,3.28-1.9,5.31-4.37,5.61-1.89.24-3.78-.89-4.08-3.33-.28-2.22,1.37-3.71,3.05-3.92.46-.06.89-.03,1.17.15-.55.37-.98,1.06-.86,2.02.13,1.05.86,1.77,1.87,1.64,1.38-.17,1.83-1.42,2.28-3.27l.58-2.54-8.94-16.4c-1.26-2.27-1.73-2.98-3.07-4.13v-.08s10.77-1.34,10.77-1.34v.08c-.77.61-.98,1.32-.88,2.07.08.67.38,1.36.78,2.16l3.57,7.48,1.45-7.55c.13-.7.17-1.34.1-1.93-.16-1.26-.83-2.24-2.32-2.57v-.08s5.7-.71,5.7-.71v.08Z"/>
    </g>
    <g>
      <path class="cls-5" d="M83.85,102.98l-3.93,62.55,180.01,11.32,3.93-62.55-180.01-11.32ZM209.06,169.66c-19.36-1.22-35.48-9.38-41.68-19.91-6.93,9.81-22.92,16.06-41.1,14.91-23.75-1.49-42.22-15.02-41.27-30.21s20.98-26.3,44.73-24.81c18.05,1.14,33.05,9.23,38.79,19.72,7.39-9.78,24.5-15.95,43.99-14.72,25.47,1.6,45.33,15.22,44.38,30.41-.96,15.19-22.37,26.21-47.84,24.61Z"/>
      <g>
        <path class="cls-5" d="M118.26,127.3l-1.5,23.88-3.5-.22-12.95-26.44-1.13,17.93c-.3,4.73.33,6.25,2.19,7.55v.08s-6.25-.39-6.25-.39v-.08c1.55-1,2.37-2.65,2.56-5.56l1.18-18.78c.18-2.79.07-3.77-1.38-5v-.08s10.68.67,10.68.67l8.1,16.65.54-8.61c.3-4.73-.33-6.25-2.19-7.55v-.08s6.25.39,6.25.39v.08c-1.59,1-2.42,2.64-2.6,5.56Z"/>
        <path class="cls-5" d="M138.07,140.88l-10.25-.64c-.33,5.19,1.44,8.01,4.44,8.2,2.03.13,3.95-.81,5.2-3.91l.25.1c-.93,4.73-3.97,7.93-9.04,7.61-5.06-.32-9.07-4.59-8.64-11.47.42-6.67,5.29-10.64,10.35-10.32,5.65.36,8.04,4.91,7.69,10.44ZM131.25,139.6c.3-4.81.4-8.36-.95-8.45s-2.03,3.39-2.42,8.24l3.38.21Z"/>
        <path class="cls-5" d="M151.86,139.96l-6.13,13.34h-.08s-5.52-17.25-5.52-17.25c-.73-2.46-1.11-3.25-2.21-4.63v-.08s10.13.64,10.13.64v.08c-.5.44-.74.97-.78,1.6-.05.72.16,1.58.47,2.57l1.84,6.39,1.84-4.29-.45-1.6c-.69-2.5-1.11-3.25-2.04-4.62v-.08s9.96.63,9.96.63v.08c-.84.46-1.18,1.11-1.22,1.87-.04.63.08,1.4.32,2.27l1.64,6.2,2.29-5.41c.3-.66.46-1.28.5-1.87.08-1.27-.49-2.36-1.85-2.95v-.08s5.74.36,5.74.36v.08c-1.31,1.15-1.91,2-2.99,4.34l-7.43,16.39h-.08s-3.95-13.98-3.95-13.98Z"/>
        <path class="cls-5" d="M194.29,131.49c.38-.7.6-1.4.64-2.04.07-1.18-.45-2.27-2-3.18v-.08s6.59.41,6.59.41v.08c-1.57,1.26-2.45,2.52-3.55,4.52l-6.25,11.89-.48,7.59c-.18,2.78.28,3.58,2.06,4.96v.08s-12.79-.8-12.79-.8v-.08c1.94-1.15,2.5-1.88,2.67-4.66l.48-7.59-4.76-12.58c-.8-2.13-1.48-3.48-2.87-4.93v-.08s12.96.81,12.96.81v.08c-1.11.74-1.58,1.43-1.63,2.31-.04.59.13,1.28.42,2.06l3.58,10.48,4.95-9.26Z"/>
        <path class="cls-5" d="M212.76,145.57l-10.25-.64c-.33,5.19,1.44,8.01,4.44,8.2,2.03.13,3.95-.81,5.2-3.91l.25.1c-.93,4.73-3.97,7.93-9.04,7.61s-9.07-4.59-8.64-11.47c.42-6.67,5.29-10.64,10.35-10.32,5.65.36,8.04,4.91,7.69,10.44ZM205.93,144.3c.3-4.81.4-8.36-.95-8.45s-2.03,3.39-2.42,8.24l3.38.21Z"/>
        <path class="cls-5" d="M233.37,156.66c-.84,1.22-2.79,1.9-4.77,1.78-2.66-.17-4.19-1.45-4.64-3.64l-.09-.6c-.83,2.41-2.73,3.73-5.65,3.54-2.91-.18-5.03-2.18-4.82-5.51.28-4.43,4.24-5.45,8.44-6.16l2.44-.44.36-5.65c.11-1.73-.24-2.85-1.38-2.93-1.05-.07-1.76,1.12-1.87,2.76-.11,1.81.43,2.65,1.23,2.7.13,0,.3-.02.47-.1-.56,1.57-2.19,2.53-4.22,2.4-2.24-.14-3.71-1.59-3.57-3.78.21-3.38,3.49-5.03,8.09-4.74,5.19.33,8.94,2,8.59,7.49-.14,2.24-.41,5.78-.68,10.21-.09,1.43.05,2.59,1.4,2.67.21.01.42-.02.69-.13v.13ZM223.58,146.55c-1.68.49-2.63,2.08-2.8,4.82-.14,2.24.28,3.62,1.25,3.68,1.14.07,1.75-1.54,1.88-3.61l.32-5.06-.65.17Z"/>
        <path class="cls-5" d="M247.28,144.23c.08-1.27-.46-2.15-1.77-2.23-1.43-.09-2.72,1.48-2.92,4.65l-.49,7.85c-.18,2.79.16,3.53,1.33,4.45v.08s-10.38-.65-10.38-.65v-.08c1.12-.86,1.29-1.53,1.46-4.31l.74-11.81c.19-3,.02-3.64-1.06-4.68v-.08s8.95.56,8.95.56l-.33,5.32c.79-3.08,2.6-5.6,5.47-5.42,2.45.15,3.89,2.11,3.74,4.56-.19,3.04-2.32,4.56-4.56,4.42-.84-.05-1.38-.34-1.58-.52.74-.25,1.33-.98,1.4-2.07Z"/>
      </g>
    </g>
  </g>
  <g>
    <path class="cls-3" d="M363.38,279.19l20.27,1.22c7-6.58,10.83-13.83,11.37-22.74,1.13-18.74-13.76-27.68-30.69-28.7-15.25-.92-27.41,7.16-28.28,21.64-.65,10.72,5.54,17.84,14.32,18.37,6.85.41,13.06-3.62,15.57-10.86h-.13c-1.63,1.19-2.82,1.51-5.01,1.38-4.65-.28-8.51-5.05-8.01-13.32.53-8.79,4.94-15.26,11.27-14.88,7.5.45,8.97,8.19,8.36,18.27-.62,10.34-2.65,18.92-9.05,29.63Z"/>
    <path class="cls-3" d="M434.37,256.89c16.28.98,21.23-10,22.18-25.77l-.39-.02c-4.71,5.03-10.56,5.2-19.73,4.64-6.46-.39-17.14-1.81-25.2-3.6l-7.97,48.15h.13c3.77-4.43,9.82-7.96,14.86-7.65,6.2.37,9.81,4.23,11.45,10.55l23.86,1.44c-3.51-10.46-13.06-17.13-25.36-17.87-9.56-.58-16.23,2.52-20.76,6.66l3.7-22.6c5.04,2.51,16.39,5.66,23.24,6.07Z"/>
    <path class="cls-3" d="M430.35,291.86c7.49,4.09,13.12,8.3,14.78,10.8,6.77,9.26,1.02,24.42-6.03,13.85l-2.64-4.42c-14.24-23.65-44.95-44.09-45.53-4.36-12.32-10.88-47.67,8.45-62.7,10.45-1.41.19-2.87.04-4.18-.52-4.85-2.09-1.62-6.86,3.12-11.12,13.95-12.55,53.97-18.76,53.97-18.76l-20.13-.84c-20.42,4.18-56.43,11.01-50.01,33.4,8.25,27.51,46.81.29,64.26-2.45,9.88-1.26,27.67,5.31,10.15,11.91,2.34.67,5.29.07,7.33-1.35,1.26-.88,2.03-2.33,2.21-3.87.61-5.23.23-9.23-.92-12.24,1.93-4.64,4.74-9.74,11.38-8.23,16.92.97,21.82,39.63,40.28,27.59,9.67-8.89,15.24-27.73,8.53-38.41l-23.88-1.44Z"/>
    <path class="cls-3" d="M356.55,154.44c6.85.41,13.06-3.62,15.57-10.86h-.13c-1.63,1.19-2.82,1.51-5.01,1.38-4.65-.28-8.51-5.05-8.01-13.32.53-8.79,4.94-15.26,11.27-14.88,7.5.45,8.97,8.19,8.36,18.27-.62,10.34-2.65,18.92-9.05,29.63l20.27,1.22c7-6.58,10.83-13.83,11.37-22.74,1.13-18.74-13.76-27.68-30.69-28.7-15.25-.92-27.41,7.16-28.28,21.64-.65,10.72,5.54,17.84,14.32,18.37Z"/>
    <path class="cls-3" d="M443.65,118.85c-22.23-1.34-37.24,17.46-38.86,44.34-.07,1.21-.11,2.4-.12,3.58l26.4,1.59c.07-1.17.14-2.35.21-3.57,1.93-31.92,3.82-43.99,12.22-43.49,8.27.5,8.7,12.72,6.77,44.63-.07,1.22-.15,2.41-.22,3.57l26.53,1.6c.13-1.17.24-2.36.31-3.57,1.62-26.88-11.15-47.36-33.24-48.7Z"/>
    <path class="cls-3" d="M382.19,203.41c9.88-1.26,27.67,5.31,10.15,11.91,2.34.67,5.29.07,7.33-1.35,1.26-.88,2.03-2.33,2.21-3.87,4.67-39.71-47.56-8.95-66.73-6.4-1.41.19-2.87.04-4.18-.52-4.85-2.09-1.62-6.86,3.12-11.12,13.95-12.55,53.97-18.76,53.97-18.76l-20.13-.84c-20.42,4.18-56.43,11.01-50.01,33.4,8.25,27.51,46.81.29,64.26-2.45Z"/>
    <path class="cls-3" d="M444.08,191.6c.37,5.55-3.08,9.11-8.48,10.45-3.51.87-7.92.17-13.04-4.27-13.67-11.85,7.43-20.86,7.43-20.86l-25.94-1.57.22.87c1.04,4.1,2.28,10.46,1.98,14.68-.81,11.55,6.41,19.17,6.41,19.17,19.11,20.78,46.76,2.45,40.3-11.29-6.46-13.74,23.19-19.07,23.19-19.07l-26.06-1.57c-5.68.71-6.33,8.8-6.02,13.47Z"/>
  </g>
  <g>
    <path class="cls-4" d="M22.11,198.04c6.12,8.13,20.63,7.74,29.87,5.04,4.08-1.19,7.98-2.94,11.61-5.14-4.21-2.58-9.23-3.62-14.08-4.23-8.09-1.02-21.54-2.45-27.41,4.33Z"/>
    <path class="cls-4" d="M58.9,262.12s.07.06.1.09c-.03-.05-.06-.09-.1-.09Z"/>
    <path class="cls-4" d="M164.4,245.76c7.66-2.53,16.42-6.52,20.43-13.89-.82-1.18-1.85-2.2-3.03-3.04-3.34-2.37-7.72-3.09-11.72-2.61-10.13,1.21-18.68,9.46-26.4,15.45-3.09,2.4-6.18,4.81-9.29,7.19,10.06,1.09,20.36.08,30.01-3.11Z"/>
    <path class="cls-3" d="M56.4,153.52c11.2-3.86,23.48-.18,28.04,11.34.46,1.16.83,2.35,1.12,3.57.25-1.14.46-2.29.6-3.45.28-2.37.17-6.87.19,3.5,0,3.32.02,5.12.03,5.96.07-1.49.1-2.99.11-4.53.03-9.41.61-19.82-6.39-27.17-7.31-7.67-19.05-7.15-27.89-2.59-10.01,5.17-16.46,15.13-22.44,24.28-.88,1.34-.08,5.97-.08,7.58,0,1.79,0,3.57.02,5.36,0,.21.06.64.1,1.07.29-.08.57-.17.87-.24,6.56-10,13.97-20.63,25.72-24.68Z"/>
    <path class="cls-2" d="M85.56,168.43c-.08.37-.15.75-.24,1.12-1.33,5.35-3.85,10.44-7.07,14.9-2,2.77-4.29,5.33-6.82,7.63.83,1.56,1.58,3.26,2.25,5.09.69,1.88,1.38,3.74,2.11,5.56,1.64-1.92,3.13-3.96,4.44-6.1,4.3-7.04,5.76-14.19,6.14-21.98-.02-.6-.07-1.78-.17-2.65-.14-1.2-.35-2.4-.63-3.58Z"/>
    <path class="cls-2" d="M58.9,277.28v-9.1c-.29,3.95-.65,8.47,0,9.1Z"/>
    <path class="cls-2" d="M19.42,199.08c0,.21,0,.41,0,.62,0,.2,0,.4,0,.6,0-.41,0-.81,0-1.22Z"/>
    <path class="cls-2" d="M59,262.21s-.07-.06-.1-.09v6.06c.21-2.9.39-5.47.1-5.97Z"/>
    <path class="cls-3" d="M105.34,239.02c-7.56-4.66-14.23-10.73-19.6-17.79-4.38-5.76-7.36-11.95-9.95-18.49-.73-1.83-1.42-3.68-2.11-5.56-.67-1.83-1.41-3.53-2.25-5.09-3.64-6.81-9.01-11.11-17.49-12.83-6.83-1.39-15.9-2.89-23.27-1.05-.31.47-.61.93-.91,1.39.11-.17.09-.66.05-1.15-1.48.43-2.9,1-4.19,1.76-8.51,5-6.65,16.19-6.32,24.62.39,9.85,9.19,14.68,18.15,15.18,12.49.7,24.87-4.42,34.07-12.85,1.21,2.49,2.15,5.15,3.06,7.75,5.55,15.86,15.8,29.51,29.52,38.44,4.83-2.42,9.53-5.19,14.11-8.17-4.48-1.59-8.8-3.64-12.87-6.15ZM19.27,203.97c.94-2.31.67-2.45,2.84-5.93,5.87-6.79,19.32-5.35,27.41-4.33,4.85.61,9.87,1.66,14.08,4.23-3.63,2.2-7.53,3.95-11.61,5.14-9.24,2.7-23.75,3.09-29.87-5.04-1.44,1.67-2.43,3.82-2.76,6.6"/>
    <path class="cls-2" d="M187.19,233.98c-.06,1.22-.13,2.41-.18,3.56.25.55.31-.64.18-3.56Z"/>
    <path class="cls-3" d="M185.61,233.16c-.23-.45-.49-.88-.78-1.29-4.01,7.38-12.77,11.37-20.43,13.89-9.65,3.18-19.95,4.2-30.01,3.11-5.23,4-10.54,7.92-16.05,11.53,1.63.58,3.28,1.11,4.97,1.57,12.94,3.52,26.87,3.32,39.7-.6,11.11-3.4,23.55-9.78,23.97-22.88,0-.31.02-.62.04-.94-.1-.22-.23-.71-.39-1.48-.33-.99-.53-1.95-1.01-2.9Z"/>
    <path class="cls-3" d="M186.49,220.3c-1.52-5.58-6.76-8.75-12.27-9.29-12.57-1.24-23.79,10.27-32.91,17.36-7.35,5.71-15.03,11.58-23.09,16.81-4.58,2.98-9.29,5.74-14.11,8.17-13.96,7.01-28.98,11.11-45.21,8.78.04,0,.07.04.1.09,5.74,5.54,11.94,10.55,18.55,14.98,14.54-2.11,28.37-8.67,40.72-16.76.02-.01.04-.03.07-.04,5.51-3.61,10.82-7.52,16.05-11.53,3.11-2.38,6.2-4.79,9.29-7.19,7.72-5.99,16.27-14.24,26.4-15.45,4-.48,8.38.24,11.72,2.61,1.18.84,2.21,1.86,3.03,3.04.29.41.55.84.78,1.29.48.95.68,1.91,1.01,2.9.16.78.29,1.26.39,1.48.05-1.15.12-2.34.18-3.56.24-4.59.43-9.52-.7-13.68Z"/>
    <path class="cls-3" d="M250.72,294.64c-1.6-11.47-13.42-16.34-23.47-17.96-11.28-1.82-22.93-1.74-34.23-.12-11.92,1.71-23.5,5.25-34.37,10.43-10.91,5.2-21.05,10.78-33.58,9.43-12.39-1.33-24.83-6.45-35.79-12.22-4.04-2.13-7.95-4.47-11.74-7-6.61-4.43-12.81-9.44-18.55-14.98.29.5.11,3.08-.1,5.97v9.1c9.73,9.39,20.77,17.3,32.87,23.35,12.28,6.14,27.3,12.31,41.28,11.06,7.03-.63,13.51-3.6,19.76-6.68,6.45-3.17,12.89-6.22,19.72-8.49,13.81-4.58,28.47-6.58,43-5.88,11.23.54,27.21,2.57,33.09,13.07,1.29,1.74,1.96,6.85,2.2,4.37-.02,1.65.35-7.66.33-6.01.02,2.99-.36,5.98-.33,8.97-.25-2.82-1.03-5.24-2.2-7.33-2.53,4.14-6.88,7.04-11.54,9.07-8.79,3.83-18.81,5.48-28.25,6.73-20.99,2.78-42.35,1.37-62.84-3.95,1.12.29-1.34,14.81,0,15.16,24.28,6.3,49.82,7.09,74.4,1.99,8.94-1.85,19.38-4.02,26-10.84,2.89-2.98,4.28-6.51,4.46-10.62.23-5.39.6-11.28-.15-16.63Z"/>
    <path class="cls-1" d="M63.59,197.94s3.81,1.64,7.93,9.21"/>
  </g>
</svg>