<?xml version="1.0" encoding="UTF-8"?>
<svg id="Layer_4" data-name="Layer 4" xmlns="http://www.w3.org/2000/svg" viewBox="0 0 507 181">
  <defs>
    <style>
      .cls-1, .cls-2, .cls-3, .cls-4 {
        stroke-width: 0px;
      }

      .cls-2 {
        fill: #ff4aff;
      }

      .cls-5 {
        fill: #ff8dce;
        stroke-width: .85px;
      }

      .cls-5, .cls-6 {
        stroke: #000;
        stroke-miterlimit: 10;
      }

      .cls-3 {
        fill: #ccff50;
      }

      .cls-4 {
        fill: #736357;
      }

      .cls-6 {
        fill: none;
        stroke-width: 1.03px;
      }
    </style>
  </defs>
  <polygon class="cls-2" points="137.9 128.51 90.35 117.53 54.35 150.48 50.09 101.87 7.63 77.82 52.55 58.75 62.31 10.93 94.33 47.76 142.81 42.26 117.68 84.09 137.9 128.51"/>
  <g>
    <g>
      <g>
        <path class="cls-1" d="M116.44,110.46c-6.29,0-13.03-1-20.03-2.97-7.06-1.99-12.91-5.64-17.38-10.84-3.29-3.69-4.96-7.93-4.96-12.59,0-1.96.29-4.05.86-6.21,2.86-9.03,11.25-15.91,24.94-20.49,5.06-1.75,10.57-3,16.37-3.71,1.55-.17,3.11-.25,4.65-.25,4.43,0,8.76.8,12.87,2.38h.01c.08,0,.17.02.25.05,4.61,2.19,7.75,5.5,9.32,9.83.66,1.75,1,3.42,1,4.95,0,2.46-.76,4.78-2.27,6.89-.04.05-.09.1-.14.14l-.05.04c-2.82,3.41-7.36,5.36-13.47,5.8h-.02c-2.84,0-5.18-.28-6.97-.82-.17,0-.33-.02-.46-.05-.12-.03-.33-.09-.86-.38-.19-.1-1.28-.55-6.39-2.43-.37.02-.82.17-1.33.43-1.8,1.23-2.7,3.09-2.7,5.64,0,.58.09,1.33.52,1.54.06.03.11.06.15.11.44.43,1.55,1.05,4.4,1.57,1.75.27,3.47.52,5.15.73,1.71.22,3.42.5,5.09.83.73.1,1.84.15,3.26.15h1.57c2.74,0,4.91.08,6.44.25,2.23.29,4.01,1.18,5.3,2.65l.15.2c1.36,2.02,2.04,3.92,2.04,5.67,0,2.39-1.63,4.58-4.85,6.52-3.11,1.87-7.68,3.17-13.59,3.89-2.99.33-5.96.5-8.86.5Z"/>
        <path class="cls-1" d="M180.51,114.81c-10.66,0-18.19-2.89-22.38-8.6-2.4-3.88-3.6-9.34-3.6-16.25-.08-1.65-.2-3.27-.36-4.78-.24-1.97-.36-4.06-.36-6.21s.18-4.94.54-8.3c.37-3.43,1.96-7.09,4.71-10.85l.1-.2c2.49-5.75,8.13-8.69,16.77-8.69,3.41,0,7.41.66,11.9,1.95,4.53,1.31,8.33,3.52,11.27,6.59,4.75,5.69,7.14,13.18,7.14,22.29,0,3.58-.45,7.13-1.34,10.56-.48,1.74-.88,3.54-1.19,5.37,0,3.66-.96,7-2.86,9.82l-.13.18c-4.39,4.74-11.18,7.12-20.21,7.12ZM180.28,65.6c-1.92.14-3.09.59-3.32,1.25-2.54,5.21-3.82,10.17-3.82,14.82,0,3.15,1,6.31,2.98,9.37,1.94,3.01,4.29,4.69,6.99,4.99.38,0,1.32-.41,2.63-3.12.01-.08.04-.17.07-.22,2.03-3.3,3.38-7.42,4.01-12.24.16-.82.24-1.58.24-2.3,0-3.76-1.32-6.81-3.93-9.09l-.13-.05c-.08-.03-.16-.07-.22-.14-2.12-2.11-3.96-3.21-5.49-3.28Z"/>
        <path class="cls-1" d="M228.8,114.97c-1.21,0-2.54-.37-3.94-1.09-1.4-.72-2.65-1.88-3.7-3.43-1.04-1.53-1.72-2.76-2.06-3.74-2.01-4.87-3.16-9.95-3.4-15.08v-.19c.08-2.78.53-5.59,1.35-8.36.94-3.11,1.42-7.02,1.42-11.65,0-2.48-.08-5-.24-7.51l-.12-2.72c0-3.31,1.08-5.5,3.21-6.53,6.08-2.71,12.4-4.07,18.79-4.07,5.29,0,10.29,1.26,14.85,3.76,2.6,1.47,3.91,3.3,3.91,5.42,0,1.26-.82,2.71-2.51,4.42-1.34,1.36-3.38,2.51-6.07,3.44.81.1,1.44.22,1.92.37,5.22,1.61,7.87,4.33,7.87,8.09,0,2.47-1.41,4.38-4.18,5.68-2.21.95-4.68,1.71-7.35,2.26-2.2.43-4.03.94-5.44,1.53-.85.35-.85.72-.85.87v.9c0,1.48-.3,3.01-.88,4.55-.27.63-.86,3.06-2.14,11.2-.25,1.72-.7,3.45-1.36,5.12-.67,1.95-2.12,3.7-4.31,5.18-1.54,1.05-3.14,1.58-4.78,1.58Z"/>
        <path class="cls-1" d="M282.63,114.97c-1.21,0-2.54-.37-3.94-1.09-1.4-.72-2.65-1.88-3.7-3.43-1.04-1.53-1.72-2.76-2.06-3.74-2.01-4.87-3.16-9.95-3.4-15.08v-.19c.08-2.78.53-5.59,1.35-8.36.94-3.11,1.42-7.02,1.42-11.65,0-2.48-.08-5-.24-7.51l-.12-2.72c0-3.31,1.08-5.5,3.21-6.53,6.08-2.71,12.4-4.07,18.79-4.07,5.29,0,10.29,1.26,14.85,3.76,2.6,1.47,3.91,3.3,3.91,5.42,0,1.26-.82,2.71-2.51,4.42-1.34,1.36-3.38,2.51-6.07,3.44.81.1,1.44.22,1.92.37,5.22,1.61,7.87,4.33,7.87,8.09,0,2.47-1.41,4.38-4.18,5.68-2.21.95-4.68,1.71-7.35,2.26-2.2.43-4.03.94-5.44,1.53-.85.35-.85.72-.85.87v.9c0,1.48-.3,3.01-.88,4.55-.27.63-.86,3.06-2.14,11.2-.25,1.72-.7,3.45-1.36,5.12-.67,1.95-2.12,3.7-4.31,5.18-1.54,1.05-3.14,1.58-4.78,1.58Z"/>
        <path class="cls-1" d="M370.42,114.81c-1.71,0-3.5-.05-5.33-.17h-.09c-.05,0-.11,0-.16-.02-.29-.08-1.57-.22-6.94-.22l-14.21.08-8.68-.08c-4.72,0-7.97-.59-9.93-1.81-1.14-.78-1.71-1.9-1.71-3.36,0-1.05.47-2.89,1.45-5.62,0-.07.02-.14.04-.19.7-1.65,1.75-4.94,3.11-9.77l.23-1.04c1.91-6.19,2.88-12.48,2.88-18.74,0-5.51-1.08-9.49-3.22-11.83-.06-.07-.1-.14-.13-.23-1.55-1.81-2.31-3.26-2.31-4.42,0-1.41.94-2.7,2.8-3.85,3.35-2.01,8.25-3.33,14.58-3.94h.78c6.44-.76,12.82-1.15,18.91-1.15,2.54,0,5.18.05,7.85.16,3.42.11,6.69.79,9.71,2.01,6.87,2.71,10.35,6.53,10.35,11.35,0,.05,0,.1-.02.14-.69,2.62-2.62,4.68-5.73,6.12l-.62.26c-1.45.52-2.89.78-4.31.78-3.14,0-7.05-1.41-11.62-4.18l-.15-.1c-3.82-2.6-7.4-3.92-10.64-3.92-2.51,0-2.93.29-2.97.32-.05.05-.11.09-.18.12-2.36,1-3.51,2.44-3.51,4.39,0,1.35.49,2.69,1.46,4.01,1.73,2.4,5.78,3.62,12.06,3.62l4,.16c3,.06,6.04.5,9.04,1.33,5.08,1.5,7.64,4.17,7.64,7.93,0,1.84-.62,3.47-1.85,4.86-.03.08-.06.16-.11.21-1.33,1.39-3.83,2.06-7.64,2.06-1.69,0-3.38-.04-5.03-.12-1.63-.08-3.18-.12-4.61-.12-1.11,0-2.6.06-4.42.16-1.35.1-2.84.63-4.44,1.56-1.9,1.45-2.85,3.18-2.85,5.25,0,1.43.61,2.69,1.86,3.84,1.6,1.14,3.72,1.74,6.24,1.74,3.12,0,6.89-.95,11.21-2.82,2.99-1.38,6.2-2.36,9.53-2.91.29-.11.76-.17,1.3-.17,1.49,0,3.16.25,4.97.76,3.39.95,5.11,2.73,5.11,5.31,0,3.4-2.4,6.54-7.13,9.35-.09.1-.21.19-.37.22-3.44,1.75-8.89,2.64-16.19,2.64Z"/>
        <path class="cls-1" d="M450.63,114.81c-1.71,0-3.5-.05-5.33-.17h-.09c-.05,0-.11,0-.16-.02-.29-.08-1.57-.22-6.94-.22l-14.21.08-8.68-.08c-4.72,0-7.97-.59-9.93-1.81-1.14-.78-1.71-1.9-1.71-3.36,0-1.05.47-2.89,1.45-5.62,0-.07.02-.14.04-.19.7-1.65,1.75-4.94,3.11-9.77l.23-1.04c1.91-6.19,2.88-12.48,2.88-18.74,0-5.51-1.08-9.49-3.22-11.83-.06-.07-.1-.14-.13-.23-1.55-1.81-2.31-3.26-2.31-4.42,0-1.41.94-2.7,2.8-3.85,3.35-2.01,8.25-3.33,14.58-3.94h.78c6.44-.76,12.82-1.15,18.91-1.15,2.54,0,5.18.05,7.85.16,3.42.11,6.69.79,9.71,2.01,6.87,2.71,10.35,6.53,10.35,11.35,0,.05,0,.1-.02.14-.69,2.62-2.62,4.68-5.73,6.12l-.62.26c-1.45.52-2.89.78-4.31.78-3.14,0-7.05-1.41-11.62-4.18l-.15-.1c-3.82-2.6-7.4-3.92-10.64-3.92-2.51,0-2.93.29-2.97.32-.05.05-.11.09-.18.12-2.36,1-3.51,2.44-3.51,4.39,0,1.35.49,2.69,1.46,4.01,1.73,2.4,5.78,3.62,12.06,3.62l4,.16c3,.06,6.04.5,9.04,1.33,5.08,1.5,7.64,4.17,7.64,7.93,0,1.84-.62,3.47-1.85,4.86-.03.08-.06.16-.11.21-1.33,1.39-3.83,2.06-7.64,2.06-1.69,0-3.38-.04-5.03-.12-1.63-.08-3.18-.12-4.61-.12-1.11,0-2.6.06-4.42.16-1.35.1-2.84.63-4.44,1.56-1.9,1.45-2.85,3.18-2.85,5.25,0,1.43.61,2.69,1.86,3.84,1.6,1.14,3.72,1.74,6.24,1.74,3.12,0,6.89-.95,11.21-2.82,2.99-1.38,6.2-2.36,9.53-2.91.29-.11.76-.17,1.3-.17,1.49,0,3.16.25,4.97.76,3.39.95,5.11,2.73,5.11,5.31,0,3.4-2.4,6.54-7.13,9.35-.09.1-.21.19-.37.22-3.44,1.75-8.89,2.64-16.19,2.64Z"/>
      </g>
      <g>
        <path class="cls-1" d="M116.44,121.89c-6.29,0-13.03-1-20.03-2.97-7.06-1.99-12.91-5.64-17.38-10.84-3.29-3.69-4.96-7.93-4.96-12.59,0-1.96.29-4.05.86-6.21,2.86-9.03,11.25-15.91,24.94-20.49,5.06-1.75,10.57-3,16.37-3.71,1.55-.17,3.11-.25,4.65-.25,4.43,0,8.76.8,12.87,2.38h.01c.08,0,.17.02.25.05,4.61,2.19,7.75,5.5,9.32,9.83.66,1.75,1,3.42,1,4.95,0,2.46-.76,4.78-2.27,6.89-.04.05-.09.1-.14.14l-.05.04c-2.82,3.41-7.36,5.36-13.47,5.8h-.02c-2.84,0-5.18-.28-6.97-.82-.17,0-.33-.02-.46-.05-.12-.03-.33-.09-.86-.38-.19-.1-1.28-.55-6.39-2.43-.37.02-.82.17-1.33.43-1.8,1.23-2.7,3.09-2.7,5.64,0,.58.09,1.33.52,1.54.06.03.11.06.15.11.44.43,1.55,1.05,4.4,1.57,1.75.27,3.47.52,5.15.73,1.71.22,3.42.5,5.09.83.73.1,1.84.15,3.26.15h1.57c2.74,0,4.91.08,6.44.25,2.23.29,4.01,1.18,5.3,2.65l.15.2c1.36,2.02,2.04,3.92,2.04,5.67,0,2.39-1.63,4.58-4.85,6.52-3.11,1.87-7.68,3.17-13.59,3.89-2.99.33-5.96.5-8.86.5Z"/>
        <path class="cls-1" d="M180.51,126.24c-10.66,0-18.19-2.89-22.38-8.6-2.4-3.88-3.6-9.34-3.6-16.25-.08-1.65-.2-3.27-.36-4.78-.24-1.97-.36-4.06-.36-6.21s.18-4.94.54-8.3c.37-3.43,1.96-7.09,4.71-10.85l.1-.2c2.49-5.75,8.13-8.69,16.77-8.69,3.41,0,7.41.66,11.9,1.95,4.53,1.31,8.33,3.52,11.27,6.59,4.75,5.69,7.14,13.18,7.14,22.29,0,3.58-.45,7.13-1.34,10.56-.48,1.74-.88,3.54-1.19,5.37,0,3.66-.96,7-2.86,9.82l-.13.18c-4.39,4.74-11.18,7.12-20.21,7.12ZM180.28,77.04c-1.92.14-3.09.59-3.32,1.25-2.54,5.21-3.82,10.17-3.82,14.82,0,3.15,1,6.31,2.98,9.37,1.94,3.01,4.29,4.69,6.99,4.99.38,0,1.32-.41,2.63-3.12.01-.08.04-.17.07-.22,2.03-3.3,3.38-7.42,4.01-12.24.16-.82.24-1.58.24-2.3,0-3.76-1.32-6.81-3.93-9.09l-.13-.05c-.08-.03-.16-.07-.22-.14-2.12-2.11-3.96-3.21-5.49-3.28Z"/>
        <path class="cls-1" d="M228.8,126.4c-1.21,0-2.54-.37-3.94-1.09-1.4-.72-2.65-1.88-3.7-3.43-1.04-1.53-1.72-2.76-2.06-3.74-2.01-4.87-3.16-9.95-3.4-15.08v-.19c.08-2.78.53-5.59,1.35-8.36.94-3.11,1.42-7.02,1.42-11.65,0-2.48-.08-5-.24-7.51l-.12-2.72c0-3.31,1.08-5.5,3.21-6.53,6.08-2.71,12.4-4.07,18.79-4.07,5.29,0,10.29,1.26,14.85,3.76,2.6,1.47,3.91,3.3,3.91,5.42,0,1.26-.82,2.71-2.51,4.42-1.34,1.36-3.38,2.51-6.07,3.44.81.1,1.44.22,1.92.37,5.22,1.61,7.87,4.33,7.87,8.09,0,2.47-1.41,4.38-4.18,5.68-2.21.95-4.68,1.71-7.35,2.26-2.2.43-4.03.94-5.44,1.53-.85.35-.85.72-.85.87v.9c0,1.48-.3,3.01-.88,4.55-.27.63-.86,3.06-2.14,11.2-.25,1.72-.7,3.45-1.36,5.12-.67,1.95-2.12,3.7-4.31,5.18-1.54,1.05-3.14,1.58-4.78,1.58Z"/>
        <path class="cls-1" d="M282.63,126.4c-1.21,0-2.54-.37-3.94-1.09-1.4-.72-2.65-1.88-3.7-3.43-1.04-1.53-1.72-2.76-2.06-3.74-2.01-4.87-3.16-9.95-3.4-15.08v-.19c.08-2.78.53-5.59,1.35-8.36.94-3.11,1.42-7.02,1.42-11.65,0-2.48-.08-5-.24-7.51l-.12-2.72c0-3.31,1.08-5.5,3.21-6.53,6.08-2.71,12.4-4.07,18.79-4.07,5.29,0,10.29,1.26,14.85,3.76,2.6,1.47,3.91,3.3,3.91,5.42,0,1.26-.82,2.71-2.51,4.42-1.34,1.36-3.38,2.51-6.07,3.44.81.1,1.44.22,1.92.37,5.22,1.61,7.87,4.33,7.87,8.09,0,2.47-1.41,4.38-4.18,5.68-2.21.95-4.68,1.71-7.35,2.26-2.2.43-4.03.94-5.44,1.53-.85.35-.85.72-.85.87v.9c0,1.48-.3,3.01-.88,4.55-.27.63-.86,3.06-2.14,11.2-.25,1.72-.7,3.45-1.36,5.12-.67,1.95-2.12,3.7-4.31,5.18-1.54,1.05-3.14,1.58-4.78,1.58Z"/>
        <path class="cls-1" d="M370.42,126.24c-1.71,0-3.5-.05-5.33-.17h-.09c-.05,0-.11,0-.16-.02-.29-.08-1.57-.22-6.94-.22l-14.21.08-8.68-.08c-4.72,0-7.97-.59-9.93-1.81-1.14-.78-1.71-1.9-1.71-3.36,0-1.05.47-2.89,1.45-5.62,0-.07.02-.14.04-.19.7-1.65,1.75-4.94,3.11-9.77l.23-1.04c1.91-6.19,2.88-12.48,2.88-18.74,0-5.51-1.08-9.49-3.22-11.83-.06-.07-.1-.14-.13-.23-1.55-1.81-2.31-3.26-2.31-4.42,0-1.41.94-2.7,2.8-3.85,3.35-2.01,8.25-3.33,14.58-3.94h.78c6.44-.76,12.82-1.15,18.91-1.15,2.54,0,5.18.05,7.85.16,3.42.11,6.69.79,9.71,2.01,6.87,2.71,10.35,6.53,10.35,11.35,0,.05,0,.1-.02.14-.69,2.62-2.62,4.68-5.73,6.12l-.62.26c-1.45.52-2.89.78-4.31.78-3.14,0-7.05-1.41-11.62-4.18l-.15-.1c-3.82-2.6-7.4-3.92-10.64-3.92-2.51,0-2.93.29-2.97.32-.05.05-.11.09-.18.12-2.36,1-3.51,2.44-3.51,4.39,0,1.35.49,2.69,1.46,4.01,1.73,2.4,5.78,3.62,12.06,3.62l4,.16c3,.06,6.04.5,9.04,1.33,5.08,1.5,7.64,4.17,7.64,7.93,0,1.84-.62,3.47-1.85,4.86-.03.08-.06.16-.11.21-1.33,1.39-3.83,2.06-7.64,2.06-1.69,0-3.38-.04-5.03-.12-1.63-.08-3.18-.12-4.61-.12-1.11,0-2.6.06-4.42.16-1.35.1-2.84.63-4.44,1.56-1.9,1.45-2.85,3.18-2.85,5.25,0,1.43.61,2.69,1.86,3.84,1.6,1.14,3.72,1.74,6.24,1.74,3.12,0,6.89-.95,11.21-2.82,2.99-1.38,6.2-2.36,9.53-2.91.29-.11.76-.17,1.3-.17,1.49,0,3.16.25,4.97.76,3.39.95,5.11,2.73,5.11,5.31,0,3.4-2.4,6.54-7.13,9.35-.09.1-.21.19-.37.22-3.44,1.75-8.89,2.64-16.19,2.64Z"/>
        <path class="cls-1" d="M450.63,126.24c-1.71,0-3.5-.05-5.33-.17h-.09c-.05,0-.11,0-.16-.02-.29-.08-1.57-.22-6.94-.22l-14.21.08-8.68-.08c-4.72,0-7.97-.59-9.93-1.81-1.14-.78-1.71-1.9-1.71-3.36,0-1.05.47-2.89,1.45-5.62,0-.07.02-.14.04-.19.7-1.65,1.75-4.94,3.11-9.77l.23-1.04c1.91-6.19,2.88-12.48,2.88-18.74,0-5.51-1.08-9.49-3.22-11.83-.06-.07-.1-.14-.13-.23-1.55-1.81-2.31-3.26-2.31-4.42,0-1.41.94-2.7,2.8-3.85,3.35-2.01,8.25-3.33,14.58-3.94h.78c6.44-.76,12.82-1.15,18.91-1.15,2.54,0,5.18.05,7.85.16,3.42.11,6.69.79,9.71,2.01,6.87,2.71,10.35,6.53,10.35,11.35,0,.05,0,.1-.02.14-.69,2.62-2.62,4.68-5.73,6.12l-.62.26c-1.45.52-2.89.78-4.31.78-3.14,0-7.05-1.41-11.62-4.18l-.15-.1c-3.82-2.6-7.4-3.92-10.64-3.92-2.51,0-2.93.29-2.97.32-.05.05-.11.09-.18.12-2.36,1-3.51,2.44-3.51,4.39,0,1.35.49,2.69,1.46,4.01,1.73,2.4,5.78,3.62,12.06,3.62l4,.16c3,.06,6.04.5,9.04,1.33,5.08,1.5,7.64,4.17,7.64,7.93,0,1.84-.62,3.47-1.85,4.86-.03.08-.06.16-.11.21-1.33,1.39-3.83,2.06-7.64,2.06-1.69,0-3.38-.04-5.03-.12-1.63-.08-3.18-.12-4.61-.12-1.11,0-2.6.06-4.42.16-1.35.1-2.84.63-4.44,1.56-1.9,1.45-2.85,3.18-2.85,5.25,0,1.43.61,2.69,1.86,3.84,1.6,1.14,3.72,1.74,6.24,1.74,3.12,0,6.89-.95,11.21-2.82,2.99-1.38,6.2-2.36,9.53-2.91.29-.11.76-.17,1.3-.17,1.49,0,3.16.25,4.97.76,3.39.95,5.11,2.73,5.11,5.31,0,3.4-2.4,6.54-7.13,9.35-.09.1-.21.19-.37.22-3.44,1.75-8.89,2.64-16.19,2.64Z"/>
      </g>
    </g>
    <g>
      <g>
        <path class="cls-4" d="M116.44,109.89c-6.26,0-12.89-.98-19.87-2.95-6.99-1.97-12.69-5.52-17.1-10.66-3.21-3.61-4.82-7.68-4.82-12.22,0-1.91.28-3.94.84-6.07,2.81-8.86,11-15.55,24.57-20.09,5.06-1.75,10.48-2.98,16.26-3.69,1.52-.16,3.05-.25,4.58-.25,4.41,0,8.67.79,12.77,2.38h.12c4.5,2.13,7.51,5.3,9.03,9.51.64,1.7.96,3.28.96,4.76,0,2.35-.72,4.54-2.17,6.56l-.12.08c-2.73,3.34-7.11,5.22-13.13,5.66-2.81,0-5.1-.27-6.87-.82-.16,0-.3-.01-.42-.04-.12-.03-.36-.14-.72-.33-.36-.19-2.55-1.03-6.56-2.5-.48,0-1.04.16-1.69.49-2.01,1.37-3.01,3.42-3.01,6.15,0,1.09.28,1.78.84,2.05.72.71,2.29,1.29,4.7,1.72,1.77.27,3.49.52,5.18.74,1.69.22,3.37.49,5.06.82.8.11,1.93.16,3.37.16h1.57c2.73,0,4.86.08,6.38.25,2.09.27,3.73,1.09,4.94,2.46l.12.16c1.28,1.91,1.93,3.69,1.93,5.33,0,2.19-1.53,4.2-4.58,6.03-3.05,1.83-7.51,3.1-13.37,3.81-2.97.33-5.9.49-8.79.49Z"/>
        <path class="cls-4" d="M180.51,114.23c-10.52,0-17.82-2.79-21.92-8.36-2.33-3.77-3.49-9.08-3.49-15.91-.08-1.69-.2-3.31-.36-4.84-.24-1.97-.36-4.02-.36-6.15s.18-4.88.54-8.24c.36-3.36,1.91-6.9,4.64-10.62l.12-.25c2.41-5.58,7.83-8.37,16.26-8.37,3.37,0,7.29.64,11.74,1.93,4.46,1.29,8.13,3.43,11.02,6.44,4.66,5.58,6.98,12.88,6.98,21.9,0,3.55-.44,7.03-1.32,10.42-.48,1.75-.88,3.55-1.2,5.41,0,3.66-.92,6.86-2.77,9.59l-.12.16c-4.26,4.59-10.84,6.89-19.75,6.89ZM183.04,96.6c1.04,0,2.13-1.17,3.25-3.53v-.08c2.09-3.39,3.45-7.54,4.09-12.47.16-.82.24-1.61.24-2.38,0-3.99-1.41-7.19-4.22-9.59l-.24-.08c-2.25-2.24-4.21-3.39-5.9-3.44-2.25.16-3.53.71-3.85,1.64-2.57,5.25-3.85,10.25-3.85,15.01,0,3.28,1.02,6.51,3.07,9.68,2.05,3.17,4.52,4.92,7.41,5.25Z"/>
        <path class="cls-4" d="M228.8,114.4c-1.12,0-2.35-.34-3.67-1.03-1.33-.68-2.49-1.76-3.49-3.24-1-1.48-1.67-2.68-1.99-3.61-2.01-4.87-3.13-9.84-3.37-14.92v-.16c.08-2.73.52-5.47,1.32-8.2.96-3.17,1.45-7.11,1.45-11.81,0-2.51-.08-5.03-.24-7.54l-.12-2.71c0-3.06.96-5.06,2.89-5.99,6.02-2.68,12.2-4.02,18.55-4.02,5.22,0,10.07,1.23,14.57,3.69,2.41,1.37,3.61,3.01,3.61,4.92,0,1.09-.78,2.43-2.35,4.02-1.57,1.59-4.12,2.87-7.65,3.85l-.84.33c2.17.11,3.69.3,4.58.57,4.98,1.53,7.47,4.05,7.47,7.54,0,2.24-1.29,3.96-3.85,5.17-2.17.93-4.58,1.67-7.23,2.21-2.25.44-4.09.96-5.54,1.56-.8.33-1.2.79-1.2,1.39v.9c0,1.42-.28,2.87-.84,4.35-.4.93-1.13,4.7-2.17,11.32-.24,1.7-.68,3.36-1.32,5-.64,1.86-2.01,3.5-4.09,4.92-1.45.98-2.93,1.48-4.46,1.48Z"/>
        <path class="cls-4" d="M282.63,114.4c-1.12,0-2.35-.34-3.67-1.03-1.33-.68-2.49-1.76-3.49-3.24-1-1.48-1.67-2.68-1.99-3.61-2.01-4.87-3.13-9.84-3.37-14.92v-.16c.08-2.73.52-5.47,1.32-8.2.96-3.17,1.45-7.11,1.45-11.81,0-2.51-.08-5.03-.24-7.54l-.12-2.71c0-3.06.96-5.06,2.89-5.99,6.02-2.68,12.2-4.02,18.55-4.02,5.22,0,10.07,1.23,14.57,3.69,2.41,1.37,3.61,3.01,3.61,4.92,0,1.09-.78,2.43-2.35,4.02-1.57,1.59-4.12,2.87-7.65,3.85l-.84.33c2.17.11,3.69.3,4.58.57,4.98,1.53,7.47,4.05,7.47,7.54,0,2.24-1.29,3.96-3.85,5.17-2.17.93-4.58,1.67-7.23,2.21-2.25.44-4.09.96-5.54,1.56-.8.33-1.2.79-1.2,1.39v.9c0,1.42-.28,2.87-.84,4.35-.4.93-1.13,4.7-2.17,11.32-.24,1.7-.68,3.36-1.32,5-.64,1.86-2.01,3.5-4.09,4.92-1.45.98-2.93,1.48-4.46,1.48Z"/>
        <path class="cls-4" d="M370.42,114.23c-1.69,0-3.45-.05-5.3-.16h-.12c-.56-.16-2.93-.25-7.1-.25l-14.21.08-8.67-.08c-4.58,0-7.79-.57-9.63-1.72-.96-.66-1.45-1.61-1.45-2.87,0-.98.48-2.82,1.45-5.5v-.08c.72-1.69,1.76-4.97,3.13-9.84l.24-1.07c1.93-6.23,2.89-12.52,2.89-18.86,0-5.69-1.12-9.76-3.37-12.22v-.08c-1.53-1.75-2.29-3.14-2.29-4.18,0-1.2.84-2.32,2.53-3.36,3.29-1.97,8.07-3.25,14.33-3.85h.72c6.5-.76,12.8-1.15,18.91-1.15,2.57,0,5.18.06,7.83.16,3.37.11,6.54.77,9.51,1.97,6.66,2.62,10,6.23,10,10.82-.64,2.46-2.45,4.38-5.42,5.74l-.6.25c-1.37.49-2.73.74-4.09.74-3.05,0-6.83-1.37-11.32-4.1l-.12-.08c-3.93-2.68-7.59-4.02-10.96-4.02-1.93,0-3.05.16-3.37.49-2.57,1.09-3.85,2.73-3.85,4.92,0,1.48.52,2.93,1.57,4.35,1.85,2.57,6.02,3.85,12.52,3.85l3.97.16c2.97.06,5.94.49,8.91,1.31,4.82,1.42,7.23,3.88,7.23,7.38,0,1.75-.6,3.28-1.81,4.59v.08c-1.2,1.26-3.61,1.89-7.23,1.89-1.69,0-3.35-.04-5-.12-1.65-.08-3.19-.12-4.64-.12-1.12,0-2.61.05-4.46.16-1.45.11-3.01.66-4.7,1.64-2.09,1.59-3.13,3.5-3.13,5.74,0,1.59.68,3.01,2.05,4.26,1.76,1.26,3.97,1.89,6.62,1.89,3.21,0,7.02-.96,11.44-2.87,2.97-1.37,6.1-2.32,9.39-2.87.32-.11.72-.16,1.2-.16,1.45,0,3.05.25,4.82.74,3.13.88,4.7,2.46,4.7,4.76,0,3.23-2.33,6.21-6.98,8.94,0,.05-.04.08-.12.08-3.37,1.75-8.71,2.62-16.02,2.62Z"/>
        <path class="cls-4" d="M450.63,114.23c-1.69,0-3.45-.05-5.3-.16h-.12c-.56-.16-2.93-.25-7.1-.25l-14.21.08-8.67-.08c-4.58,0-7.79-.57-9.63-1.72-.96-.66-1.45-1.61-1.45-2.87,0-.98.48-2.82,1.45-5.5v-.08c.72-1.69,1.76-4.97,3.13-9.84l.24-1.07c1.93-6.23,2.89-12.52,2.89-18.86,0-5.69-1.12-9.76-3.37-12.22v-.08c-1.53-1.75-2.29-3.14-2.29-4.18,0-1.2.84-2.32,2.53-3.36,3.29-1.97,8.07-3.25,14.33-3.85h.72c6.5-.76,12.8-1.15,18.91-1.15,2.57,0,5.18.06,7.83.16,3.37.11,6.54.77,9.51,1.97,6.66,2.62,10,6.23,10,10.82-.64,2.46-2.45,4.38-5.42,5.74l-.6.25c-1.37.49-2.73.74-4.09.74-3.05,0-6.83-1.37-11.32-4.1l-.12-.08c-3.93-2.68-7.59-4.02-10.96-4.02-1.93,0-3.05.16-3.37.49-2.57,1.09-3.85,2.73-3.85,4.92,0,1.48.52,2.93,1.57,4.35,1.85,2.57,6.02,3.85,12.52,3.85l3.97.16c2.97.06,5.94.49,8.91,1.31,4.82,1.42,7.23,3.88,7.23,7.38,0,1.75-.6,3.28-1.81,4.59v.08c-1.2,1.26-3.61,1.89-7.23,1.89-1.69,0-3.35-.04-5-.12-1.65-.08-3.19-.12-4.64-.12-1.12,0-2.61.05-4.46.16-1.45.11-3.01.66-4.7,1.64-2.09,1.59-3.13,3.5-3.13,5.74,0,1.59.68,3.01,2.05,4.26,1.76,1.26,3.97,1.89,6.62,1.89,3.21,0,7.02-.96,11.44-2.87,2.97-1.37,6.1-2.32,9.39-2.87.32-.11.72-.16,1.2-.16,1.45,0,3.05.25,4.82.74,3.13.88,4.7,2.46,4.7,4.76,0,3.23-2.33,6.21-6.98,8.94,0,.05-.04.08-.12.08-3.37,1.75-8.71,2.62-16.02,2.62Z"/>
      </g>
      <g>
        <path class="cls-4" d="M116.44,121.32c-6.26,0-12.89-.98-19.87-2.95-6.99-1.97-12.69-5.52-17.1-10.66-3.21-3.61-4.82-7.68-4.82-12.22,0-1.91.28-3.94.84-6.07,2.81-8.86,11-15.55,24.57-20.09,5.06-1.75,10.48-2.98,16.26-3.69,1.52-.16,3.05-.25,4.58-.25,4.41,0,8.67.79,12.77,2.38h.12c4.5,2.13,7.51,5.3,9.03,9.51.64,1.7.96,3.28.96,4.76,0,2.35-.72,4.54-2.17,6.56l-.12.08c-2.73,3.34-7.11,5.22-13.13,5.66-2.81,0-5.1-.27-6.87-.82-.16,0-.3-.01-.42-.04-.12-.03-.36-.14-.72-.33-.36-.19-2.55-1.03-6.56-2.5-.48,0-1.04.16-1.69.49-2.01,1.37-3.01,3.42-3.01,6.15,0,1.09.28,1.78.84,2.05.72.71,2.29,1.29,4.7,1.72,1.77.27,3.49.52,5.18.74,1.69.22,3.37.49,5.06.82.8.11,1.93.16,3.37.16h1.57c2.73,0,4.86.08,6.38.25,2.09.27,3.73,1.09,4.94,2.46l.12.16c1.28,1.91,1.93,3.69,1.93,5.33,0,2.19-1.53,4.2-4.58,6.03-3.05,1.83-7.51,3.1-13.37,3.81-2.97.33-5.9.49-8.79.49Z"/>
        <path class="cls-4" d="M180.51,125.67c-10.52,0-17.82-2.79-21.92-8.36-2.33-3.77-3.49-9.08-3.49-15.91-.08-1.69-.2-3.31-.36-4.84-.24-1.97-.36-4.02-.36-6.15s.18-4.88.54-8.24c.36-3.36,1.91-6.9,4.64-10.62l.12-.25c2.41-5.58,7.83-8.37,16.26-8.37,3.37,0,7.29.64,11.74,1.93,4.46,1.29,8.13,3.43,11.02,6.44,4.66,5.58,6.98,12.88,6.98,21.9,0,3.55-.44,7.03-1.32,10.42-.48,1.75-.88,3.55-1.2,5.41,0,3.66-.92,6.86-2.77,9.59l-.12.16c-4.26,4.59-10.84,6.89-19.75,6.89ZM183.04,108.04c1.04,0,2.13-1.17,3.25-3.53v-.08c2.09-3.39,3.45-7.54,4.09-12.47.16-.82.24-1.61.24-2.38,0-3.99-1.41-7.19-4.22-9.59l-.24-.08c-2.25-2.24-4.21-3.39-5.9-3.44-2.25.16-3.53.71-3.85,1.64-2.57,5.25-3.85,10.25-3.85,15.01,0,3.28,1.02,6.51,3.07,9.68,2.05,3.17,4.52,4.92,7.41,5.25Z"/>
        <path class="cls-4" d="M228.8,125.83c-1.12,0-2.35-.34-3.67-1.03-1.33-.68-2.49-1.76-3.49-3.24-1-1.48-1.67-2.68-1.99-3.61-2.01-4.87-3.13-9.84-3.37-14.92v-.16c.08-2.73.52-5.47,1.32-8.2.96-3.17,1.45-7.11,1.45-11.81,0-2.51-.08-5.03-.24-7.54l-.12-2.71c0-3.06.96-5.06,2.89-5.99,6.02-2.68,12.2-4.02,18.55-4.02,5.22,0,10.07,1.23,14.57,3.69,2.41,1.37,3.61,3.01,3.61,4.92,0,1.09-.78,2.43-2.35,4.02-1.57,1.59-4.12,2.87-7.65,3.85l-.84.33c2.17.11,3.69.3,4.58.57,4.98,1.53,7.47,4.05,7.47,7.54,0,2.24-1.29,3.96-3.85,5.17-2.17.93-4.58,1.67-7.23,2.21-2.25.44-4.09.96-5.54,1.56-.8.33-1.2.79-1.2,1.39v.9c0,1.42-.28,2.87-.84,4.35-.4.93-1.13,4.7-2.17,11.32-.24,1.7-.68,3.36-1.32,5-.64,1.86-2.01,3.5-4.09,4.92-1.45.98-2.93,1.48-4.46,1.48Z"/>
        <path class="cls-4" d="M282.63,125.83c-1.12,0-2.35-.34-3.67-1.03-1.33-.68-2.49-1.76-3.49-3.24-1-1.48-1.67-2.68-1.99-3.61-2.01-4.87-3.13-9.84-3.37-14.92v-.16c.08-2.73.52-5.47,1.32-8.2.96-3.17,1.45-7.11,1.45-11.81,0-2.51-.08-5.03-.24-7.54l-.12-2.71c0-3.06.96-5.06,2.89-5.99,6.02-2.68,12.2-4.02,18.55-4.02,5.22,0,10.07,1.23,14.57,3.69,2.41,1.37,3.61,3.01,3.61,4.92,0,1.09-.78,2.43-2.35,4.02-1.57,1.59-4.12,2.87-7.65,3.85l-.84.33c2.17.11,3.69.3,4.58.57,4.98,1.53,7.47,4.05,7.47,7.54,0,2.24-1.29,3.96-3.85,5.17-2.17.93-4.58,1.67-7.23,2.21-2.25.44-4.09.96-5.54,1.56-.8.33-1.2.79-1.2,1.39v.9c0,1.42-.28,2.87-.84,4.35-.4.93-1.13,4.7-2.17,11.32-.24,1.7-.68,3.36-1.32,5-.64,1.86-2.01,3.5-4.09,4.92-1.45.98-2.93,1.48-4.46,1.48Z"/>
        <path class="cls-4" d="M370.42,125.67c-1.69,0-3.45-.05-5.3-.16h-.12c-.56-.16-2.93-.25-7.1-.25l-14.21.08-8.67-.08c-4.58,0-7.79-.57-9.63-1.72-.96-.66-1.45-1.61-1.45-2.87,0-.98.48-2.82,1.45-5.5v-.08c.72-1.69,1.76-4.97,3.13-9.84l.24-1.07c1.93-6.23,2.89-12.52,2.89-18.86,0-5.69-1.12-9.76-3.37-12.22v-.08c-1.53-1.75-2.29-3.14-2.29-4.18,0-1.2.84-2.32,2.53-3.36,3.29-1.97,8.07-3.25,14.33-3.85h.72c6.5-.76,12.8-1.15,18.91-1.15,2.57,0,5.18.06,7.83.16,3.37.11,6.54.77,9.51,1.97,6.66,2.62,10,6.23,10,10.82-.64,2.46-2.45,4.38-5.42,5.74l-.6.25c-1.37.49-2.73.74-4.09.74-3.05,0-6.83-1.37-11.32-4.1l-.12-.08c-3.93-2.68-7.59-4.02-10.96-4.02-1.93,0-3.05.16-3.37.49-2.57,1.09-3.85,2.73-3.85,4.92,0,1.48.52,2.93,1.57,4.35,1.85,2.57,6.02,3.85,12.52,3.85l3.97.16c2.97.06,5.94.49,8.91,1.31,4.82,1.42,7.23,3.88,7.23,7.38,0,1.75-.6,3.28-1.81,4.59v.08c-1.2,1.26-3.61,1.89-7.23,1.89-1.69,0-3.35-.04-5-.12-1.65-.08-3.19-.12-4.64-.12-1.12,0-2.61.05-4.46.16-1.45.11-3.01.66-4.7,1.64-2.09,1.59-3.13,3.5-3.13,5.74,0,1.59.68,3.01,2.05,4.26,1.76,1.26,3.97,1.89,6.62,1.89,3.21,0,7.02-.96,11.44-2.87,2.97-1.37,6.1-2.32,9.39-2.87.32-.11.72-.16,1.2-.16,1.45,0,3.05.25,4.82.74,3.13.88,4.7,2.46,4.7,4.76,0,3.23-2.33,6.21-6.98,8.94,0,.05-.04.08-.12.08-3.37,1.75-8.71,2.62-16.02,2.62Z"/>
        <path class="cls-4" d="M450.63,125.67c-1.69,0-3.45-.05-5.3-.16h-.12c-.56-.16-2.93-.25-7.1-.25l-14.21.08-8.67-.08c-4.58,0-7.79-.57-9.63-1.72-.96-.66-1.45-1.61-1.45-2.87,0-.98.48-2.82,1.45-5.5v-.08c.72-1.69,1.76-4.97,3.13-9.84l.24-1.07c1.93-6.23,2.89-12.52,2.89-18.86,0-5.69-1.12-9.76-3.37-12.22v-.08c-1.53-1.75-2.29-3.14-2.29-4.18,0-1.2.84-2.32,2.53-3.36,3.29-1.97,8.07-3.25,14.33-3.85h.72c6.5-.76,12.8-1.15,18.91-1.15,2.57,0,5.18.06,7.83.16,3.37.11,6.54.77,9.51,1.97,6.66,2.62,10,6.23,10,10.82-.64,2.46-2.45,4.38-5.42,5.74l-.6.25c-1.37.49-2.73.74-4.09.74-3.05,0-6.83-1.37-11.32-4.1l-.12-.08c-3.93-2.68-7.59-4.02-10.96-4.02-1.93,0-3.05.16-3.37.49-2.57,1.09-3.85,2.73-3.85,4.92,0,1.48.52,2.93,1.57,4.35,1.85,2.57,6.02,3.85,12.52,3.85l3.97.16c2.97.06,5.94.49,8.91,1.31,4.82,1.42,7.23,3.88,7.23,7.38,0,1.75-.6,3.28-1.81,4.59v.08c-1.2,1.26-3.61,1.89-7.23,1.89-1.69,0-3.35-.04-5-.12-1.65-.08-3.19-.12-4.64-.12-1.12,0-2.61.05-4.46.16-1.45.11-3.01.66-4.7,1.64-2.09,1.59-3.13,3.5-3.13,5.74,0,1.59.68,3.01,2.05,4.26,1.76,1.26,3.97,1.89,6.62,1.89,3.21,0,7.02-.96,11.44-2.87,2.97-1.37,6.1-2.32,9.39-2.87.32-.11.72-.16,1.2-.16,1.45,0,3.05.25,4.82.74,3.13.88,4.7,2.46,4.7,4.76,0,3.23-2.33,6.21-6.98,8.94,0,.05-.04.08-.12.08-3.37,1.75-8.71,2.62-16.02,2.62Z"/>
      </g>
    </g>
    <g>
      <g>
        <path class="cls-1" d="M116.44,116.17c-6.29,0-13.03-1-20.03-2.97-7.06-1.99-12.91-5.64-17.38-10.84-3.29-3.69-4.96-7.93-4.96-12.59,0-1.96.29-4.05.86-6.21,2.86-9.03,11.25-15.91,24.94-20.49,5.06-1.75,10.57-3,16.37-3.71,1.55-.17,3.11-.25,4.65-.25,4.43,0,8.76.8,12.87,2.38h.01c.08,0,.17.02.25.05,4.61,2.19,7.75,5.5,9.32,9.83.66,1.75,1,3.42,1,4.95,0,2.46-.76,4.78-2.27,6.89-.04.05-.09.1-.14.14l-.05.04c-2.82,3.41-7.36,5.36-13.47,5.8h-.02c-2.84,0-5.18-.28-6.97-.82-.17,0-.33-.02-.46-.05-.12-.03-.33-.09-.86-.38-.19-.1-1.28-.55-6.39-2.43-.37.02-.82.17-1.33.43-1.8,1.23-2.7,3.09-2.7,5.64,0,.58.09,1.33.52,1.54.06.03.11.06.15.11.44.43,1.55,1.05,4.4,1.57,1.75.27,3.47.52,5.15.73,1.71.22,3.42.5,5.09.83.73.1,1.84.15,3.26.15h1.57c2.74,0,4.91.08,6.44.25,2.23.29,4.01,1.18,5.3,2.65l.15.2c1.36,2.02,2.04,3.92,2.04,5.67,0,2.39-1.63,4.58-4.85,6.52-3.11,1.87-7.68,3.17-13.59,3.89-2.99.33-5.96.5-8.86.5Z"/>
        <path class="cls-1" d="M180.51,120.52c-10.66,0-18.19-2.89-22.38-8.6-2.4-3.88-3.6-9.34-3.6-16.25-.08-1.65-.2-3.27-.36-4.78-.24-1.97-.36-4.06-.36-6.21s.18-4.94.54-8.3c.37-3.43,1.96-7.09,4.71-10.85l.1-.2c2.49-5.75,8.13-8.69,16.77-8.69,3.41,0,7.41.66,11.9,1.95,4.53,1.31,8.33,3.52,11.27,6.59,4.75,5.69,7.14,13.18,7.14,22.29,0,3.58-.45,7.13-1.34,10.56-.48,1.74-.88,3.54-1.19,5.37,0,3.66-.96,7-2.86,9.82l-.13.18c-4.39,4.74-11.18,7.12-20.21,7.12ZM180.28,71.32c-1.92.14-3.09.59-3.32,1.25-2.54,5.21-3.82,10.17-3.82,14.82,0,3.15,1,6.31,2.98,9.37,1.94,3.01,4.29,4.69,6.99,4.99.38,0,1.32-.41,2.63-3.12.01-.08.04-.17.07-.22,2.03-3.3,3.38-7.42,4.01-12.24.16-.82.24-1.58.24-2.3,0-3.76-1.32-6.81-3.93-9.09l-.13-.05c-.08-.03-.16-.07-.22-.14-2.12-2.11-3.96-3.21-5.49-3.28Z"/>
        <path class="cls-1" d="M228.8,120.69c-1.21,0-2.54-.37-3.94-1.09-1.4-.72-2.65-1.88-3.7-3.43-1.04-1.53-1.72-2.76-2.06-3.74-2.01-4.87-3.16-9.95-3.4-15.08v-.19c.08-2.78.53-5.59,1.35-8.36.94-3.11,1.42-7.02,1.42-11.65,0-2.48-.08-5-.24-7.51l-.12-2.72c0-3.31,1.08-5.5,3.21-6.53,6.08-2.71,12.4-4.07,18.79-4.07,5.29,0,10.29,1.26,14.85,3.76,2.6,1.47,3.91,3.3,3.91,5.42,0,1.26-.82,2.71-2.51,4.42-1.34,1.36-3.38,2.51-6.07,3.44.81.1,1.44.22,1.92.37,5.22,1.61,7.87,4.33,7.87,8.09,0,2.47-1.41,4.38-4.18,5.68-2.21.95-4.68,1.71-7.35,2.26-2.2.43-4.03.94-5.44,1.53-.85.35-.85.72-.85.87v.9c0,1.48-.3,3.01-.88,4.55-.27.63-.86,3.06-2.14,11.2-.25,1.72-.7,3.45-1.36,5.12-.67,1.95-2.12,3.7-4.31,5.18-1.54,1.05-3.14,1.58-4.78,1.58Z"/>
        <path class="cls-1" d="M282.63,120.69c-1.21,0-2.54-.37-3.94-1.09-1.4-.72-2.65-1.88-3.7-3.43-1.04-1.53-1.72-2.76-2.06-3.74-2.01-4.87-3.16-9.95-3.4-15.08v-.19c.08-2.78.53-5.59,1.35-8.36.94-3.11,1.42-7.02,1.42-11.65,0-2.48-.08-5-.24-7.51l-.12-2.72c0-3.31,1.08-5.5,3.21-6.53,6.08-2.71,12.4-4.07,18.79-4.07,5.29,0,10.29,1.26,14.85,3.76,2.6,1.47,3.91,3.3,3.91,5.42,0,1.26-.82,2.71-2.51,4.42-1.34,1.36-3.38,2.51-6.07,3.44.81.1,1.44.22,1.92.37,5.22,1.61,7.87,4.33,7.87,8.09,0,2.47-1.41,4.38-4.18,5.68-2.21.95-4.68,1.71-7.35,2.26-2.2.43-4.03.94-5.44,1.53-.85.35-.85.72-.85.87v.9c0,1.48-.3,3.01-.88,4.55-.27.63-.86,3.06-2.14,11.2-.25,1.72-.7,3.45-1.36,5.12-.67,1.95-2.12,3.7-4.31,5.18-1.54,1.05-3.14,1.58-4.78,1.58Z"/>
        <path class="cls-1" d="M370.42,120.52c-1.71,0-3.5-.05-5.33-.17h-.09c-.05,0-.11,0-.16-.02-.29-.08-1.57-.22-6.94-.22l-14.21.08-8.68-.08c-4.72,0-7.97-.59-9.93-1.81-1.14-.78-1.71-1.9-1.71-3.36,0-1.05.47-2.89,1.45-5.62,0-.07.02-.14.04-.19.7-1.65,1.75-4.94,3.11-9.77l.23-1.04c1.91-6.19,2.88-12.48,2.88-18.74,0-5.51-1.08-9.49-3.22-11.83-.06-.07-.1-.14-.13-.23-1.55-1.81-2.31-3.26-2.31-4.42,0-1.41.94-2.7,2.8-3.85,3.35-2.01,8.25-3.33,14.58-3.94h.78c6.44-.76,12.82-1.15,18.91-1.15,2.54,0,5.18.05,7.85.16,3.42.11,6.69.79,9.71,2.01,6.87,2.71,10.35,6.53,10.35,11.35,0,.05,0,.1-.02.14-.69,2.62-2.62,4.68-5.73,6.12l-.62.26c-1.45.52-2.89.78-4.31.78-3.14,0-7.05-1.41-11.62-4.18l-.15-.1c-3.82-2.6-7.4-3.92-10.64-3.92-2.51,0-2.93.29-2.97.32-.05.05-.11.09-.18.12-2.36,1-3.51,2.44-3.51,4.39,0,1.35.49,2.69,1.46,4.01,1.73,2.4,5.78,3.62,12.06,3.62l4,.16c3,.06,6.04.5,9.04,1.33,5.08,1.5,7.64,4.17,7.64,7.93,0,1.84-.62,3.47-1.85,4.86-.03.08-.06.16-.11.21-1.33,1.39-3.83,2.06-7.64,2.06-1.69,0-3.38-.04-5.03-.12-1.63-.08-3.18-.12-4.61-.12-1.11,0-2.6.06-4.42.16-1.35.1-2.84.63-4.44,1.56-1.9,1.45-2.85,3.18-2.85,5.25,0,1.43.61,2.69,1.86,3.84,1.6,1.14,3.72,1.74,6.24,1.74,3.12,0,6.89-.95,11.21-2.82,2.99-1.38,6.2-2.36,9.53-2.91.29-.11.76-.17,1.3-.17,1.49,0,3.16.25,4.97.76,3.39.95,5.11,2.73,5.11,5.31,0,3.4-2.4,6.54-7.13,9.35-.09.1-.21.19-.37.22-3.44,1.75-8.89,2.64-16.19,2.64Z"/>
        <path class="cls-1" d="M450.63,120.52c-1.71,0-3.5-.05-5.33-.17h-.09c-.05,0-.11,0-.16-.02-.29-.08-1.57-.22-6.94-.22l-14.21.08-8.68-.08c-4.72,0-7.97-.59-9.93-1.81-1.14-.78-1.71-1.9-1.71-3.36,0-1.05.47-2.89,1.45-5.62,0-.07.02-.14.04-.19.7-1.65,1.75-4.94,3.11-9.77l.23-1.04c1.91-6.19,2.88-12.48,2.88-18.74,0-5.51-1.08-9.49-3.22-11.83-.06-.07-.1-.14-.13-.23-1.55-1.81-2.31-3.26-2.31-4.42,0-1.41.94-2.7,2.8-3.85,3.35-2.01,8.25-3.33,14.58-3.94h.78c6.44-.76,12.82-1.15,18.91-1.15,2.54,0,5.18.05,7.85.16,3.42.11,6.69.79,9.71,2.01,6.87,2.71,10.35,6.53,10.35,11.35,0,.05,0,.1-.02.14-.69,2.62-2.62,4.68-5.73,6.12l-.62.26c-1.45.52-2.89.78-4.31.78-3.14,0-7.05-1.41-11.62-4.18l-.15-.1c-3.82-2.6-7.4-3.92-10.64-3.92-2.51,0-2.93.29-2.97.32-.05.05-.11.09-.18.12-2.36,1-3.51,2.44-3.51,4.39,0,1.35.49,2.69,1.46,4.01,1.73,2.4,5.78,3.62,12.06,3.62l4,.16c3,.06,6.04.5,9.04,1.33,5.08,1.5,7.64,4.17,7.64,7.93,0,1.84-.62,3.47-1.85,4.86-.03.08-.06.16-.11.21-1.33,1.39-3.83,2.06-7.64,2.06-1.69,0-3.38-.04-5.03-.12-1.63-.08-3.18-.12-4.61-.12-1.11,0-2.6.06-4.42.16-1.35.1-2.84.63-4.44,1.56-1.9,1.45-2.85,3.18-2.85,5.25,0,1.43.61,2.69,1.86,3.84,1.6,1.14,3.72,1.74,6.24,1.74,3.12,0,6.89-.95,11.21-2.82,2.99-1.38,6.2-2.36,9.53-2.91.29-.11.76-.17,1.3-.17,1.49,0,3.16.25,4.97.76,3.39.95,5.11,2.73,5.11,5.31,0,3.4-2.4,6.54-7.13,9.35-.09.1-.21.19-.37.22-3.44,1.75-8.89,2.64-16.19,2.64Z"/>
      </g>
      <g>
        <path class="cls-1" d="M116.44,121.89c-6.29,0-13.03-1-20.03-2.97-7.06-1.99-12.91-5.64-17.38-10.84-3.29-3.69-4.96-7.93-4.96-12.59,0-1.96.29-4.05.86-6.21,2.86-9.03,11.25-15.91,24.94-20.49,5.06-1.75,10.57-3,16.37-3.71,1.55-.17,3.11-.25,4.65-.25,4.43,0,8.76.8,12.87,2.38h.01c.08,0,.17.02.25.05,4.61,2.19,7.75,5.5,9.32,9.83.66,1.75,1,3.42,1,4.95,0,2.46-.76,4.78-2.27,6.89-.04.05-.09.1-.14.14l-.05.04c-2.82,3.41-7.36,5.36-13.47,5.8h-.02c-2.84,0-5.18-.28-6.97-.82-.17,0-.33-.02-.46-.05-.12-.03-.33-.09-.86-.38-.19-.1-1.28-.55-6.39-2.43-.37.02-.82.17-1.33.43-1.8,1.23-2.7,3.09-2.7,5.64,0,.58.09,1.33.52,1.54.06.03.11.06.15.11.44.43,1.55,1.05,4.4,1.57,1.75.27,3.47.52,5.15.73,1.71.22,3.42.5,5.09.83.73.1,1.84.15,3.26.15h1.57c2.74,0,4.91.08,6.44.25,2.23.29,4.01,1.18,5.3,2.65l.15.2c1.36,2.02,2.04,3.92,2.04,5.67,0,2.39-1.63,4.58-4.85,6.52-3.11,1.87-7.68,3.17-13.59,3.89-2.99.33-5.96.5-8.86.5Z"/>
        <path class="cls-1" d="M180.51,126.24c-10.66,0-18.19-2.89-22.38-8.6-2.4-3.88-3.6-9.34-3.6-16.25-.08-1.65-.2-3.27-.36-4.78-.24-1.97-.36-4.06-.36-6.21s.18-4.94.54-8.3c.37-3.43,1.96-7.09,4.71-10.85l.1-.2c2.49-5.75,8.13-8.69,16.77-8.69,3.41,0,7.41.66,11.9,1.95,4.53,1.31,8.33,3.52,11.27,6.59,4.75,5.69,7.14,13.18,7.14,22.29,0,3.58-.45,7.13-1.34,10.56-.48,1.74-.88,3.54-1.19,5.37,0,3.66-.96,7-2.86,9.82l-.13.18c-4.39,4.74-11.18,7.12-20.21,7.12ZM180.28,77.04c-1.92.14-3.09.59-3.32,1.25-2.54,5.21-3.82,10.17-3.82,14.82,0,3.15,1,6.31,2.98,9.37,1.94,3.01,4.29,4.69,6.99,4.99.38,0,1.32-.41,2.63-3.12.01-.08.04-.17.07-.22,2.03-3.3,3.38-7.42,4.01-12.24.16-.82.24-1.58.24-2.3,0-3.76-1.32-6.81-3.93-9.09l-.13-.05c-.08-.03-.16-.07-.22-.14-2.12-2.11-3.96-3.21-5.49-3.28Z"/>
        <path class="cls-1" d="M228.8,126.4c-1.21,0-2.54-.37-3.94-1.09-1.4-.72-2.65-1.88-3.7-3.43-1.04-1.53-1.72-2.76-2.06-3.74-2.01-4.87-3.16-9.95-3.4-15.08v-.19c.08-2.78.53-5.59,1.35-8.36.94-3.11,1.42-7.02,1.42-11.65,0-2.48-.08-5-.24-7.51l-.12-2.72c0-3.31,1.08-5.5,3.21-6.53,6.08-2.71,12.4-4.07,18.79-4.07,5.29,0,10.29,1.26,14.85,3.76,2.6,1.47,3.91,3.3,3.91,5.42,0,1.26-.82,2.71-2.51,4.42-1.34,1.36-3.38,2.51-6.07,3.44.81.1,1.44.22,1.92.37,5.22,1.61,7.87,4.33,7.87,8.09,0,2.47-1.41,4.38-4.18,5.68-2.21.95-4.68,1.71-7.35,2.26-2.2.43-4.03.94-5.44,1.53-.85.35-.85.72-.85.87v.9c0,1.48-.3,3.01-.88,4.55-.27.63-.86,3.06-2.14,11.2-.25,1.72-.7,3.45-1.36,5.12-.67,1.95-2.12,3.7-4.31,5.18-1.54,1.05-3.14,1.58-4.78,1.58Z"/>
        <path class="cls-1" d="M282.63,126.4c-1.21,0-2.54-.37-3.94-1.09-1.4-.72-2.65-1.88-3.7-3.43-1.04-1.53-1.72-2.76-2.06-3.74-2.01-4.87-3.16-9.95-3.4-15.08v-.19c.08-2.78.53-5.59,1.35-8.36.94-3.11,1.42-7.02,1.42-11.65,0-2.48-.08-5-.24-7.51l-.12-2.72c0-3.31,1.08-5.5,3.21-6.53,6.08-2.71,12.4-4.07,18.79-4.07,5.29,0,10.29,1.26,14.85,3.76,2.6,1.47,3.91,3.3,3.91,5.42,0,1.26-.82,2.71-2.51,4.42-1.34,1.36-3.38,2.51-6.07,3.44.81.1,1.44.22,1.92.37,5.22,1.61,7.87,4.33,7.87,8.09,0,2.47-1.41,4.38-4.18,5.68-2.21.95-4.68,1.71-7.35,2.26-2.2.43-4.03.94-5.44,1.53-.85.35-.85.72-.85.87v.9c0,1.48-.3,3.01-.88,4.55-.27.63-.86,3.06-2.14,11.2-.25,1.72-.7,3.45-1.36,5.12-.67,1.95-2.12,3.7-4.31,5.18-1.54,1.05-3.14,1.58-4.78,1.58Z"/>
        <path class="cls-1" d="M370.42,126.24c-1.71,0-3.5-.05-5.33-.17h-.09c-.05,0-.11,0-.16-.02-.29-.08-1.57-.22-6.94-.22l-14.21.08-8.68-.08c-4.72,0-7.97-.59-9.93-1.81-1.14-.78-1.71-1.9-1.71-3.36,0-1.05.47-2.89,1.45-5.62,0-.07.02-.14.04-.19.7-1.65,1.75-4.94,3.11-9.77l.23-1.04c1.91-6.19,2.88-12.48,2.88-18.74,0-5.51-1.08-9.49-3.22-11.83-.06-.07-.1-.14-.13-.23-1.55-1.81-2.31-3.26-2.31-4.42,0-1.41.94-2.7,2.8-3.85,3.35-2.01,8.25-3.33,14.58-3.94h.78c6.44-.76,12.82-1.15,18.91-1.15,2.54,0,5.18.05,7.85.16,3.42.11,6.69.79,9.71,2.01,6.87,2.71,10.35,6.53,10.35,11.35,0,.05,0,.1-.02.14-.69,2.62-2.62,4.68-5.73,6.12l-.62.26c-1.45.52-2.89.78-4.31.78-3.14,0-7.05-1.41-11.62-4.18l-.15-.1c-3.82-2.6-7.4-3.92-10.64-3.92-2.51,0-2.93.29-2.97.32-.05.05-.11.09-.18.12-2.36,1-3.51,2.44-3.51,4.39,0,1.35.49,2.69,1.46,4.01,1.73,2.4,5.78,3.62,12.06,3.62l4,.16c3,.06,6.04.5,9.04,1.33,5.08,1.5,7.64,4.17,7.64,7.93,0,1.84-.62,3.47-1.85,4.86-.03.08-.06.16-.11.21-1.33,1.39-3.83,2.06-7.64,2.06-1.69,0-3.38-.04-5.03-.12-1.63-.08-3.18-.12-4.61-.12-1.11,0-2.6.06-4.42.16-1.35.1-2.84.63-4.44,1.56-1.9,1.45-2.85,3.18-2.85,5.25,0,1.43.61,2.69,1.86,3.84,1.6,1.14,3.72,1.74,6.24,1.74,3.12,0,6.89-.95,11.21-2.82,2.99-1.38,6.2-2.36,9.53-2.91.29-.11.76-.17,1.3-.17,1.49,0,3.16.25,4.97.76,3.39.95,5.11,2.73,5.11,5.31,0,3.4-2.4,6.54-7.13,9.35-.09.1-.21.19-.37.22-3.44,1.75-8.89,2.64-16.19,2.64Z"/>
        <path class="cls-1" d="M450.63,126.24c-1.71,0-3.5-.05-5.33-.17h-.09c-.05,0-.11,0-.16-.02-.29-.08-1.57-.22-6.94-.22l-14.21.08-8.68-.08c-4.72,0-7.97-.59-9.93-1.81-1.14-.78-1.71-1.9-1.71-3.36,0-1.05.47-2.89,1.45-5.62,0-.07.02-.14.04-.19.7-1.65,1.75-4.94,3.11-9.77l.23-1.04c1.91-6.19,2.88-12.48,2.88-18.74,0-5.51-1.08-9.49-3.22-11.83-.06-.07-.1-.14-.13-.23-1.55-1.81-2.31-3.26-2.31-4.42,0-1.41.94-2.7,2.8-3.85,3.35-2.01,8.25-3.33,14.58-3.94h.78c6.44-.76,12.82-1.15,18.91-1.15,2.54,0,5.18.05,7.85.16,3.42.11,6.69.79,9.71,2.01,6.87,2.71,10.35,6.53,10.35,11.35,0,.05,0,.1-.02.14-.69,2.62-2.62,4.68-5.73,6.12l-.62.26c-1.45.52-2.89.78-4.31.78-3.14,0-7.05-1.41-11.62-4.18l-.15-.1c-3.82-2.6-7.4-3.92-10.64-3.92-2.51,0-2.93.29-2.97.32-.05.05-.11.09-.18.12-2.36,1-3.51,2.44-3.51,4.39,0,1.35.49,2.69,1.46,4.01,1.73,2.4,5.78,3.62,12.06,3.62l4,.16c3,.06,6.04.5,9.04,1.33,5.08,1.5,7.64,4.17,7.64,7.93,0,1.84-.62,3.47-1.85,4.86-.03.08-.06.16-.11.21-1.33,1.39-3.83,2.06-7.64,2.06-1.69,0-3.38-.04-5.03-.12-1.63-.08-3.18-.12-4.61-.12-1.11,0-2.6.06-4.42.16-1.35.1-2.84.63-4.44,1.56-1.9,1.45-2.85,3.18-2.85,5.25,0,1.43.61,2.69,1.86,3.84,1.6,1.14,3.72,1.74,6.24,1.74,3.12,0,6.89-.95,11.21-2.82,2.99-1.38,6.2-2.36,9.53-2.91.29-.11.76-.17,1.3-.17,1.49,0,3.16.25,4.97.76,3.39.95,5.11,2.73,5.11,5.31,0,3.4-2.4,6.54-7.13,9.35-.09.1-.21.19-.37.22-3.44,1.75-8.89,2.64-16.19,2.64Z"/>
      </g>
    </g>
    <g>
      <g>
        <path class="cls-2" d="M116.44,115.6c-6.26,0-12.89-.98-19.87-2.95-6.99-1.97-12.69-5.52-17.1-10.66-3.21-3.61-4.82-7.68-4.82-12.22,0-1.91.28-3.94.84-6.07,2.81-8.86,11-15.55,24.57-20.09,5.06-1.75,10.48-2.98,16.26-3.69,1.52-.16,3.05-.25,4.58-.25,4.41,0,8.67.79,12.77,2.38h.12c4.5,2.13,7.51,5.3,9.03,9.51.64,1.7.96,3.28.96,4.76,0,2.35-.72,4.54-2.17,6.56l-.12.08c-2.73,3.34-7.11,5.22-13.13,5.66-2.81,0-5.1-.27-6.87-.82-.16,0-.3-.01-.42-.04-.12-.03-.36-.14-.72-.33-.36-.19-2.55-1.03-6.56-2.5-.48,0-1.04.16-1.69.49-2.01,1.37-3.01,3.42-3.01,6.15,0,1.09.28,1.78.84,2.05.72.71,2.29,1.29,4.7,1.72,1.77.27,3.49.52,5.18.74,1.69.22,3.37.49,5.06.82.8.11,1.93.16,3.37.16h1.57c2.73,0,4.86.08,6.38.25,2.09.27,3.73,1.09,4.94,2.46l.12.16c1.28,1.91,1.93,3.69,1.93,5.33,0,2.19-1.53,4.2-4.58,6.03-3.05,1.83-7.51,3.1-13.37,3.81-2.97.33-5.9.49-8.79.49Z"/>
        <path class="cls-2" d="M180.51,119.95c-10.52,0-17.82-2.79-21.92-8.36-2.33-3.77-3.49-9.08-3.49-15.91-.08-1.69-.2-3.31-.36-4.84-.24-1.97-.36-4.02-.36-6.15s.18-4.88.54-8.24c.36-3.36,1.91-6.9,4.64-10.62l.12-.25c2.41-5.58,7.83-8.37,16.26-8.37,3.37,0,7.29.64,11.74,1.93,4.46,1.29,8.13,3.43,11.02,6.44,4.66,5.58,6.98,12.88,6.98,21.9,0,3.55-.44,7.03-1.32,10.42-.48,1.75-.88,3.55-1.2,5.41,0,3.66-.92,6.86-2.77,9.59l-.12.16c-4.26,4.59-10.84,6.89-19.75,6.89ZM183.04,102.32c1.04,0,2.13-1.17,3.25-3.53v-.08c2.09-3.39,3.45-7.54,4.09-12.47.16-.82.24-1.61.24-2.38,0-3.99-1.41-7.19-4.22-9.59l-.24-.08c-2.25-2.24-4.21-3.39-5.9-3.44-2.25.16-3.53.71-3.85,1.64-2.57,5.25-3.85,10.25-3.85,15.01,0,3.28,1.02,6.51,3.07,9.68,2.05,3.17,4.52,4.92,7.41,5.25Z"/>
        <path class="cls-2" d="M228.8,120.11c-1.12,0-2.35-.34-3.67-1.03-1.33-.68-2.49-1.76-3.49-3.24-1-1.48-1.67-2.68-1.99-3.61-2.01-4.87-3.13-9.84-3.37-14.92v-.16c.08-2.73.52-5.47,1.32-8.2.96-3.17,1.45-7.11,1.45-11.81,0-2.51-.08-5.03-.24-7.54l-.12-2.71c0-3.06.96-5.06,2.89-5.99,6.02-2.68,12.2-4.02,18.55-4.02,5.22,0,10.07,1.23,14.57,3.69,2.41,1.37,3.61,3.01,3.61,4.92,0,1.09-.78,2.43-2.35,4.02-1.57,1.59-4.12,2.87-7.65,3.85l-.84.33c2.17.11,3.69.3,4.58.57,4.98,1.53,7.47,4.05,7.47,7.54,0,2.24-1.29,3.96-3.85,5.17-2.17.93-4.58,1.67-7.23,2.21-2.25.44-4.09.96-5.54,1.56-.8.33-1.2.79-1.2,1.39v.9c0,1.42-.28,2.87-.84,4.35-.4.93-1.13,4.7-2.17,11.32-.24,1.7-.68,3.36-1.32,5-.64,1.86-2.01,3.5-4.09,4.92-1.45.98-2.93,1.48-4.46,1.48Z"/>
        <path class="cls-2" d="M282.63,120.11c-1.12,0-2.35-.34-3.67-1.03-1.33-.68-2.49-1.76-3.49-3.24-1-1.48-1.67-2.68-1.99-3.61-2.01-4.87-3.13-9.84-3.37-14.92v-.16c.08-2.73.52-5.47,1.32-8.2.96-3.17,1.45-7.11,1.45-11.81,0-2.51-.08-5.03-.24-7.54l-.12-2.71c0-3.06.96-5.06,2.89-5.99,6.02-2.68,12.2-4.02,18.55-4.02,5.22,0,10.07,1.23,14.57,3.69,2.41,1.37,3.61,3.01,3.61,4.92,0,1.09-.78,2.43-2.35,4.02-1.57,1.59-4.12,2.87-7.65,3.85l-.84.33c2.17.11,3.69.3,4.58.57,4.98,1.53,7.47,4.05,7.47,7.54,0,2.24-1.29,3.96-3.85,5.17-2.17.93-4.58,1.67-7.23,2.21-2.25.44-4.09.96-5.54,1.56-.8.33-1.2.79-1.2,1.39v.9c0,1.42-.28,2.87-.84,4.35-.4.93-1.13,4.7-2.17,11.32-.24,1.7-.68,3.36-1.32,5-.64,1.86-2.01,3.5-4.09,4.92-1.45.98-2.93,1.48-4.46,1.48Z"/>
        <path class="cls-2" d="M370.42,119.95c-1.69,0-3.45-.05-5.3-.16h-.12c-.56-.16-2.93-.25-7.1-.25l-14.21.08-8.67-.08c-4.58,0-7.79-.57-9.63-1.72-.96-.66-1.45-1.61-1.45-2.87,0-.98.48-2.82,1.45-5.5v-.08c.72-1.69,1.76-4.97,3.13-9.84l.24-1.07c1.93-6.23,2.89-12.52,2.89-18.86,0-5.69-1.12-9.76-3.37-12.22v-.08c-1.53-1.75-2.29-3.14-2.29-4.18,0-1.2.84-2.32,2.53-3.36,3.29-1.97,8.07-3.25,14.33-3.85h.72c6.5-.76,12.8-1.15,18.91-1.15,2.57,0,5.18.06,7.83.16,3.37.11,6.54.77,9.51,1.97,6.66,2.62,10,6.23,10,10.82-.64,2.46-2.45,4.38-5.42,5.74l-.6.25c-1.37.49-2.73.74-4.09.74-3.05,0-6.83-1.37-11.32-4.1l-.12-.08c-3.93-2.68-7.59-4.02-10.96-4.02-1.93,0-3.05.16-3.37.49-2.57,1.09-3.85,2.73-3.85,4.92,0,1.48.52,2.93,1.57,4.35,1.85,2.57,6.02,3.85,12.52,3.85l3.97.16c2.97.06,5.94.49,8.91,1.31,4.82,1.42,7.23,3.88,7.23,7.38,0,1.75-.6,3.28-1.81,4.59v.08c-1.2,1.26-3.61,1.89-7.23,1.89-1.69,0-3.35-.04-5-.12-1.65-.08-3.19-.12-4.64-.12-1.12,0-2.61.05-4.46.16-1.45.11-3.01.66-4.7,1.64-2.09,1.59-3.13,3.5-3.13,5.74,0,1.59.68,3.01,2.05,4.26,1.76,1.26,3.97,1.89,6.62,1.89,3.21,0,7.02-.96,11.44-2.87,2.97-1.37,6.1-2.32,9.39-2.87.32-.11.72-.16,1.2-.16,1.45,0,3.05.25,4.82.74,3.13.88,4.7,2.46,4.7,4.76,0,3.23-2.33,6.21-6.98,8.94,0,.05-.04.08-.12.08-3.37,1.75-8.71,2.62-16.02,2.62Z"/>
        <path class="cls-2" d="M450.63,119.95c-1.69,0-3.45-.05-5.3-.16h-.12c-.56-.16-2.93-.25-7.1-.25l-14.21.08-8.67-.08c-4.58,0-7.79-.57-9.63-1.72-.96-.66-1.45-1.61-1.45-2.87,0-.98.48-2.82,1.45-5.5v-.08c.72-1.69,1.76-4.97,3.13-9.84l.24-1.07c1.93-6.23,2.89-12.52,2.89-18.86,0-5.69-1.12-9.76-3.37-12.22v-.08c-1.53-1.75-2.29-3.14-2.29-4.18,0-1.2.84-2.32,2.53-3.36,3.29-1.97,8.07-3.25,14.33-3.85h.72c6.5-.76,12.8-1.15,18.91-1.15,2.57,0,5.18.06,7.83.16,3.37.11,6.54.77,9.51,1.97,6.66,2.62,10,6.23,10,10.82-.64,2.46-2.45,4.38-5.42,5.74l-.6.25c-1.37.49-2.73.74-4.09.74-3.05,0-6.83-1.37-11.32-4.1l-.12-.08c-3.93-2.68-7.59-4.02-10.96-4.02-1.93,0-3.05.16-3.37.49-2.57,1.09-3.85,2.73-3.85,4.92,0,1.48.52,2.93,1.57,4.35,1.85,2.57,6.02,3.85,12.52,3.85l3.97.16c2.97.06,5.94.49,8.91,1.31,4.82,1.42,7.23,3.88,7.23,7.38,0,1.75-.6,3.28-1.81,4.59v.08c-1.2,1.26-3.61,1.89-7.23,1.89-1.69,0-3.35-.04-5-.12-1.65-.08-3.19-.12-4.64-.12-1.12,0-2.61.05-4.46.16-1.45.11-3.01.66-4.7,1.64-2.09,1.59-3.13,3.5-3.13,5.74,0,1.59.68,3.01,2.05,4.26,1.76,1.26,3.97,1.89,6.62,1.89,3.21,0,7.02-.96,11.44-2.87,2.97-1.37,6.1-2.32,9.39-2.87.32-.11.72-.16,1.2-.16,1.45,0,3.05.25,4.82.74,3.13.88,4.7,2.46,4.7,4.76,0,3.23-2.33,6.21-6.98,8.94,0,.05-.04.08-.12.08-3.37,1.75-8.71,2.62-16.02,2.62Z"/>
      </g>
      <g>
        <path class="cls-2" d="M116.44,121.32c-6.26,0-12.89-.98-19.87-2.95-6.99-1.97-12.69-5.52-17.1-10.66-3.21-3.61-4.82-7.68-4.82-12.22,0-1.91.28-3.94.84-6.07,2.81-8.86,11-15.55,24.57-20.09,5.06-1.75,10.48-2.98,16.26-3.69,1.52-.16,3.05-.25,4.58-.25,4.41,0,8.67.79,12.77,2.38h.12c4.5,2.13,7.51,5.3,9.03,9.51.64,1.7.96,3.28.96,4.76,0,2.35-.72,4.54-2.17,6.56l-.12.08c-2.73,3.34-7.11,5.22-13.13,5.66-2.81,0-5.1-.27-6.87-.82-.16,0-.3-.01-.42-.04-.12-.03-.36-.14-.72-.33-.36-.19-2.55-1.03-6.56-2.5-.48,0-1.04.16-1.69.49-2.01,1.37-3.01,3.42-3.01,6.15,0,1.09.28,1.78.84,2.05.72.71,2.29,1.29,4.7,1.72,1.77.27,3.49.52,5.18.74,1.69.22,3.37.49,5.06.82.8.11,1.93.16,3.37.16h1.57c2.73,0,4.86.08,6.38.25,2.09.27,3.73,1.09,4.94,2.46l.12.16c1.28,1.91,1.93,3.69,1.93,5.33,0,2.19-1.53,4.2-4.58,6.03-3.05,1.83-7.51,3.1-13.37,3.81-2.97.33-5.9.49-8.79.49Z"/>
        <path class="cls-2" d="M180.51,125.67c-10.52,0-17.82-2.79-21.92-8.36-2.33-3.77-3.49-9.08-3.49-15.91-.08-1.69-.2-3.31-.36-4.84-.24-1.97-.36-4.02-.36-6.15s.18-4.88.54-8.24c.36-3.36,1.91-6.9,4.64-10.62l.12-.25c2.41-5.58,7.83-8.37,16.26-8.37,3.37,0,7.29.64,11.74,1.93,4.46,1.29,8.13,3.43,11.02,6.44,4.66,5.58,6.98,12.88,6.98,21.9,0,3.55-.44,7.03-1.32,10.42-.48,1.75-.88,3.55-1.2,5.41,0,3.66-.92,6.86-2.77,9.59l-.12.16c-4.26,4.59-10.84,6.89-19.75,6.89ZM183.04,108.04c1.04,0,2.13-1.17,3.25-3.53v-.08c2.09-3.39,3.45-7.54,4.09-12.47.16-.82.24-1.61.24-2.38,0-3.99-1.41-7.19-4.22-9.59l-.24-.08c-2.25-2.24-4.21-3.39-5.9-3.44-2.25.16-3.53.71-3.85,1.64-2.57,5.25-3.85,10.25-3.85,15.01,0,3.28,1.02,6.51,3.07,9.68,2.05,3.17,4.52,4.92,7.41,5.25Z"/>
        <path class="cls-2" d="M228.8,125.83c-1.12,0-2.35-.34-3.67-1.03-1.33-.68-2.49-1.76-3.49-3.24-1-1.48-1.67-2.68-1.99-3.61-2.01-4.87-3.13-9.84-3.37-14.92v-.16c.08-2.73.52-5.47,1.32-8.2.96-3.17,1.45-7.11,1.45-11.81,0-2.51-.08-5.03-.24-7.54l-.12-2.71c0-3.06.96-5.06,2.89-5.99,6.02-2.68,12.2-4.02,18.55-4.02,5.22,0,10.07,1.23,14.57,3.69,2.41,1.37,3.61,3.01,3.61,4.92,0,1.09-.78,2.43-2.35,4.02-1.57,1.59-4.12,2.87-7.65,3.85l-.84.33c2.17.11,3.69.3,4.58.57,4.98,1.53,7.47,4.05,7.47,7.54,0,2.24-1.29,3.96-3.85,5.17-2.17.93-4.58,1.67-7.23,2.21-2.25.44-4.09.96-5.54,1.56-.8.33-1.2.79-1.2,1.39v.9c0,1.42-.28,2.87-.84,4.35-.4.93-1.13,4.7-2.17,11.32-.24,1.7-.68,3.36-1.32,5-.64,1.86-2.01,3.5-4.09,4.92-1.45.98-2.93,1.48-4.46,1.48Z"/>
        <path class="cls-2" d="M282.63,125.83c-1.12,0-2.35-.34-3.67-1.03-1.33-.68-2.49-1.76-3.49-3.24-1-1.48-1.67-2.68-1.99-3.61-2.01-4.87-3.13-9.84-3.37-14.92v-.16c.08-2.73.52-5.47,1.32-8.2.96-3.17,1.45-7.11,1.45-11.81,0-2.51-.08-5.03-.24-7.54l-.12-2.71c0-3.06.96-5.06,2.89-5.99,6.02-2.68,12.2-4.02,18.55-4.02,5.22,0,10.07,1.23,14.57,3.69,2.41,1.37,3.61,3.01,3.61,4.92,0,1.09-.78,2.43-2.35,4.02-1.57,1.59-4.12,2.87-7.65,3.85l-.84.33c2.17.11,3.69.3,4.58.57,4.98,1.53,7.47,4.05,7.47,7.54,0,2.24-1.29,3.96-3.85,5.17-2.17.93-4.58,1.67-7.23,2.21-2.25.44-4.09.96-5.54,1.56-.8.33-1.2.79-1.2,1.39v.9c0,1.42-.28,2.87-.84,4.35-.4.93-1.13,4.7-2.17,11.32-.24,1.7-.68,3.36-1.32,5-.64,1.86-2.01,3.5-4.09,4.92-1.45.98-2.93,1.48-4.46,1.48Z"/>
        <path class="cls-2" d="M370.42,125.67c-1.69,0-3.45-.05-5.3-.16h-.12c-.56-.16-2.93-.25-7.1-.25l-14.21.08-8.67-.08c-4.58,0-7.79-.57-9.63-1.72-.96-.66-1.45-1.61-1.45-2.87,0-.98.48-2.82,1.45-5.5v-.08c.72-1.69,1.76-4.97,3.13-9.84l.24-1.07c1.93-6.23,2.89-12.52,2.89-18.86,0-5.69-1.12-9.76-3.37-12.22v-.08c-1.53-1.75-2.29-3.14-2.29-4.18,0-1.2.84-2.32,2.53-3.36,3.29-1.97,8.07-3.25,14.33-3.85h.72c6.5-.76,12.8-1.15,18.91-1.15,2.57,0,5.18.06,7.83.16,3.37.11,6.54.77,9.51,1.97,6.66,2.62,10,6.23,10,10.82-.64,2.46-2.45,4.38-5.42,5.74l-.6.25c-1.37.49-2.73.74-4.09.74-3.05,0-6.83-1.37-11.32-4.1l-.12-.08c-3.93-2.68-7.59-4.02-10.96-4.02-1.93,0-3.05.16-3.37.49-2.57,1.09-3.85,2.73-3.85,4.92,0,1.48.52,2.93,1.57,4.35,1.85,2.57,6.02,3.85,12.52,3.85l3.97.16c2.97.06,5.94.49,8.91,1.31,4.82,1.42,7.23,3.88,7.23,7.38,0,1.75-.6,3.28-1.81,4.59v.08c-1.2,1.26-3.61,1.89-7.23,1.89-1.69,0-3.35-.04-5-.12-1.65-.08-3.19-.12-4.64-.12-1.12,0-2.61.05-4.46.16-1.45.11-3.01.66-4.7,1.64-2.09,1.59-3.13,3.5-3.13,5.74,0,1.59.68,3.01,2.05,4.26,1.76,1.26,3.97,1.89,6.62,1.89,3.21,0,7.02-.96,11.44-2.87,2.97-1.37,6.1-2.32,9.39-2.87.32-.11.72-.16,1.2-.16,1.45,0,3.05.25,4.82.74,3.13.88,4.7,2.46,4.7,4.76,0,3.23-2.33,6.21-6.98,8.94,0,.05-.04.08-.12.08-3.37,1.75-8.71,2.62-16.02,2.62Z"/>
        <path class="cls-2" d="M450.63,125.67c-1.69,0-3.45-.05-5.3-.16h-.12c-.56-.16-2.93-.25-7.1-.25l-14.21.08-8.67-.08c-4.58,0-7.79-.57-9.63-1.72-.96-.66-1.45-1.61-1.45-2.87,0-.98.48-2.82,1.45-5.5v-.08c.72-1.69,1.76-4.97,3.13-9.84l.24-1.07c1.93-6.23,2.89-12.52,2.89-18.86,0-5.69-1.12-9.76-3.37-12.22v-.08c-1.53-1.75-2.29-3.14-2.29-4.18,0-1.2.84-2.32,2.53-3.36,3.29-1.97,8.07-3.25,14.33-3.85h.72c6.5-.76,12.8-1.15,18.91-1.15,2.57,0,5.18.06,7.83.16,3.37.11,6.54.77,9.51,1.97,6.66,2.62,10,6.23,10,10.82-.64,2.46-2.45,4.38-5.42,5.74l-.6.25c-1.37.49-2.73.74-4.09.74-3.05,0-6.83-1.37-11.32-4.1l-.12-.08c-3.93-2.68-7.59-4.02-10.96-4.02-1.93,0-3.05.16-3.37.49-2.57,1.09-3.85,2.73-3.85,4.92,0,1.48.52,2.93,1.57,4.35,1.85,2.57,6.02,3.85,12.52,3.85l3.97.16c2.97.06,5.94.49,8.91,1.31,4.82,1.42,7.23,3.88,7.23,7.38,0,1.75-.6,3.28-1.81,4.59v.08c-1.2,1.26-3.61,1.89-7.23,1.89-1.69,0-3.35-.04-5-.12-1.65-.08-3.19-.12-4.64-.12-1.12,0-2.61.05-4.46.16-1.45.11-3.01.66-4.7,1.64-2.09,1.59-3.13,3.5-3.13,5.74,0,1.59.68,3.01,2.05,4.26,1.76,1.26,3.97,1.89,6.62,1.89,3.21,0,7.02-.96,11.44-2.87,2.97-1.37,6.1-2.32,9.39-2.87.32-.11.72-.16,1.2-.16,1.45,0,3.05.25,4.82.74,3.13.88,4.7,2.46,4.7,4.76,0,3.23-2.33,6.21-6.98,8.94,0,.05-.04.08-.12.08-3.37,1.75-8.71,2.62-16.02,2.62Z"/>
      </g>
    </g>
    <g>
      <path class="cls-5" d="M116.44,121.32c-6.26,0-12.89-.98-19.87-2.95-6.99-1.97-12.69-5.52-17.1-10.66-3.21-3.61-4.82-7.68-4.82-12.22,0-1.91.28-3.94.84-6.07,2.81-8.86,11-15.55,24.57-20.09,5.06-1.75,10.48-2.98,16.26-3.69,1.52-.16,3.05-.25,4.58-.25,4.41,0,8.67.79,12.77,2.38h.12c4.5,2.13,7.51,5.3,9.03,9.51.64,1.7.96,3.28.96,4.76,0,2.35-.72,4.54-2.17,6.56l-.12.08c-2.73,3.34-7.11,5.22-13.13,5.66-2.81,0-5.1-.27-6.87-.82-.16,0-.3-.01-.42-.04-.12-.03-.36-.14-.72-.33-.36-.19-2.55-1.03-6.56-2.5-.48,0-1.04.16-1.69.49-2.01,1.37-3.01,3.42-3.01,6.15,0,1.09.28,1.78.84,2.05.72.71,2.29,1.29,4.7,1.72,1.77.27,3.49.52,5.18.74,1.69.22,3.37.49,5.06.82.8.11,1.93.16,3.37.16h1.57c2.73,0,4.86.08,6.38.25,2.09.27,3.73,1.09,4.94,2.46l.12.16c1.28,1.91,1.93,3.69,1.93,5.33,0,2.19-1.53,4.2-4.58,6.03-3.05,1.83-7.51,3.1-13.37,3.81-2.97.33-5.9.49-8.79.49Z"/>
      <path class="cls-5" d="M180.51,125.67c-10.52,0-17.82-2.79-21.92-8.36-2.33-3.77-3.49-9.08-3.49-15.91-.08-1.69-.2-3.31-.36-4.84-.24-1.97-.36-4.02-.36-6.15s.18-4.88.54-8.24c.36-3.36,1.91-6.9,4.64-10.62l.12-.25c2.41-5.58,7.83-8.37,16.26-8.37,3.37,0,7.29.64,11.74,1.93,4.46,1.29,8.13,3.43,11.02,6.44,4.66,5.58,6.98,12.88,6.98,21.9,0,3.55-.44,7.03-1.32,10.42-.48,1.75-.88,3.55-1.2,5.41,0,3.66-.92,6.86-2.77,9.59l-.12.16c-4.26,4.59-10.84,6.89-19.75,6.89ZM183.04,108.04c1.04,0,2.13-1.17,3.25-3.53v-.08c2.09-3.39,3.45-7.54,4.09-12.47.16-.82.24-1.61.24-2.38,0-3.99-1.41-7.19-4.22-9.59l-.24-.08c-2.25-2.24-4.21-3.39-5.9-3.44-2.25.16-3.53.71-3.85,1.64-2.57,5.25-3.85,10.25-3.85,15.01,0,3.28,1.02,6.51,3.07,9.68,2.05,3.17,4.52,4.92,7.41,5.25Z"/>
      <path class="cls-5" d="M228.8,125.83c-1.12,0-2.35-.34-3.67-1.03-1.33-.68-2.49-1.76-3.49-3.24-1-1.48-1.67-2.68-1.99-3.61-2.01-4.87-3.13-9.84-3.37-14.92v-.16c.08-2.73.52-5.47,1.32-8.2.96-3.17,1.45-7.11,1.45-11.81,0-2.51-.08-5.03-.24-7.54l-.12-2.71c0-3.06.96-5.06,2.89-5.99,6.02-2.68,12.2-4.02,18.55-4.02,5.22,0,10.07,1.23,14.57,3.69,2.41,1.37,3.61,3.01,3.61,4.92,0,1.09-.78,2.43-2.35,4.02-1.57,1.59-4.12,2.87-7.65,3.85l-.84.33c2.17.11,3.69.3,4.58.57,4.98,1.53,7.47,4.05,7.47,7.54,0,2.24-1.29,3.96-3.85,5.17-2.17.93-4.58,1.67-7.23,2.21-2.25.44-4.09.96-5.54,1.56-.8.33-1.2.79-1.2,1.39v.9c0,1.42-.28,2.87-.84,4.35-.4.93-1.13,4.7-2.17,11.32-.24,1.7-.68,3.36-1.32,5-.64,1.86-2.01,3.5-4.09,4.92-1.45.98-2.93,1.48-4.46,1.48Z"/>
      <path class="cls-5" d="M282.63,125.83c-1.12,0-2.35-.34-3.67-1.03-1.33-.68-2.49-1.76-3.49-3.24-1-1.48-1.67-2.68-1.99-3.61-2.01-4.87-3.13-9.84-3.37-14.92v-.16c.08-2.73.52-5.47,1.32-8.2.96-3.17,1.45-7.11,1.45-11.81,0-2.51-.08-5.03-.24-7.54l-.12-2.71c0-3.06.96-5.06,2.89-5.99,6.02-2.68,12.2-4.02,18.55-4.02,5.22,0,10.07,1.23,14.57,3.69,2.41,1.37,3.61,3.01,3.61,4.92,0,1.09-.78,2.43-2.35,4.02-1.57,1.59-4.12,2.87-7.65,3.85l-.84.33c2.17.11,3.69.3,4.58.57,4.98,1.53,7.47,4.05,7.47,7.54,0,2.24-1.29,3.96-3.85,5.17-2.17.93-4.58,1.67-7.23,2.21-2.25.44-4.09.96-5.54,1.56-.8.33-1.2.79-1.2,1.39v.9c0,1.42-.28,2.87-.84,4.35-.4.93-1.13,4.7-2.17,11.32-.24,1.7-.68,3.36-1.32,5-.64,1.86-2.01,3.5-4.09,4.92-1.45.98-2.93,1.48-4.46,1.48Z"/>
      <path class="cls-5" d="M370.42,125.67c-1.69,0-3.45-.05-5.3-.16h-.12c-.56-.16-2.93-.25-7.1-.25l-14.21.08-8.67-.08c-4.58,0-7.79-.57-9.63-1.72-.96-.66-1.45-1.61-1.45-2.87,0-.98.48-2.82,1.45-5.5v-.08c.72-1.69,1.76-4.97,3.13-9.84l.24-1.07c1.93-6.23,2.89-12.52,2.89-18.86,0-5.69-1.12-9.76-3.37-12.22v-.08c-1.53-1.75-2.29-3.14-2.29-4.18,0-1.2.84-2.32,2.53-3.36,3.29-1.97,8.07-3.25,14.33-3.85h.72c6.5-.76,12.8-1.15,18.91-1.15,2.57,0,5.18.06,7.83.16,3.37.11,6.54.77,9.51,1.97,6.66,2.62,10,6.23,10,10.82-.64,2.46-2.45,4.38-5.42,5.74l-.6.25c-1.37.49-2.73.74-4.09.74-3.05,0-6.83-1.37-11.32-4.1l-.12-.08c-3.93-2.68-7.59-4.02-10.96-4.02-1.93,0-3.05.16-3.37.49-2.57,1.09-3.85,2.73-3.85,4.92,0,1.48.52,2.93,1.57,4.35,1.85,2.57,6.02,3.85,12.52,3.85l3.97.16c2.97.06,5.94.49,8.91,1.31,4.82,1.42,7.23,3.88,7.23,7.38,0,1.75-.6,3.28-1.81,4.59v.08c-1.2,1.26-3.61,1.89-7.23,1.89-1.69,0-3.35-.04-5-.12-1.65-.08-3.19-.12-4.64-.12-1.12,0-2.61.05-4.46.16-1.45.11-3.01.66-4.7,1.64-2.09,1.59-3.13,3.5-3.13,5.74,0,1.59.68,3.01,2.05,4.26,1.76,1.26,3.97,1.89,6.62,1.89,3.21,0,7.02-.96,11.44-2.87,2.97-1.37,6.1-2.32,9.39-2.87.32-.11.72-.16,1.2-.16,1.45,0,3.05.25,4.82.74,3.13.88,4.7,2.46,4.7,4.76,0,3.23-2.33,6.21-6.98,8.94,0,.05-.04.08-.12.08-3.37,1.75-8.71,2.62-16.02,2.62Z"/>
      <path class="cls-5" d="M450.63,125.67c-1.69,0-3.45-.05-5.3-.16h-.12c-.56-.16-2.93-.25-7.1-.25l-14.21.08-8.67-.08c-4.58,0-7.79-.57-9.63-1.72-.96-.66-1.45-1.61-1.45-2.87,0-.98.48-2.82,1.45-5.5v-.08c.72-1.69,1.76-4.97,3.13-9.84l.24-1.07c1.93-6.23,2.89-12.52,2.89-18.86,0-5.69-1.12-9.76-3.37-12.22v-.08c-1.53-1.75-2.29-3.14-2.29-4.18,0-1.2.84-2.32,2.53-3.36,3.29-1.97,8.07-3.25,14.33-3.85h.72c6.5-.76,12.8-1.15,18.91-1.15,2.57,0,5.18.06,7.83.16,3.37.11,6.54.77,9.51,1.97,6.66,2.62,10,6.23,10,10.82-.64,2.46-2.45,4.38-5.42,5.74l-.6.25c-1.37.49-2.73.74-4.09.74-3.05,0-6.83-1.37-11.32-4.1l-.12-.08c-3.93-2.68-7.59-4.02-10.96-4.02-1.93,0-3.05.16-3.37.49-2.57,1.09-3.85,2.73-3.85,4.92,0,1.48.52,2.93,1.57,4.35,1.85,2.57,6.02,3.85,12.52,3.85l3.97.16c2.97.06,5.94.49,8.91,1.31,4.82,1.42,7.23,3.88,7.23,7.38,0,1.75-.6,3.28-1.81,4.59v.08c-1.2,1.26-3.61,1.89-7.23,1.89-1.69,0-3.35-.04-5-.12-1.65-.08-3.19-.12-4.64-.12-1.12,0-2.61.05-4.46.16-1.45.11-3.01.66-4.7,1.64-2.09,1.59-3.13,3.5-3.13,5.74,0,1.59.68,3.01,2.05,4.26,1.76,1.26,3.97,1.89,6.62,1.89,3.21,0,7.02-.96,11.44-2.87,2.97-1.37,6.1-2.32,9.39-2.87.32-.11.72-.16,1.2-.16,1.45,0,3.05.25,4.82.74,3.13.88,4.7,2.46,4.7,4.76,0,3.23-2.33,6.21-6.98,8.94,0,.05-.04.08-.12.08-3.37,1.75-8.71,2.62-16.02,2.62Z"/>
    </g>
    <g>
      <path class="cls-3" d="M116.44,121.32c-6.26,0-12.89-.98-19.87-2.95-6.99-1.97-12.69-5.52-17.1-10.66-3.21-3.61-4.82-7.68-4.82-12.22,0-1.91.28-3.94.84-6.07,2.81-8.86,11-15.55,24.57-20.09,5.06-1.75,10.48-2.98,16.26-3.69,1.52-.16,3.05-.25,4.58-.25,4.41,0,8.67.79,12.77,2.38h.12c4.5,2.13,7.51,5.3,9.03,9.51.64,1.7.96,3.28.96,4.76,0,2.35-.72,4.54-2.17,6.56l-.12.08c-2.73,3.34-7.11,5.22-13.13,5.66-2.81,0-5.1-.27-6.87-.82-.16,0-.3-.01-.42-.04-.12-.03-.36-.14-.72-.33-.36-.19-2.55-1.03-6.56-2.5-.48,0-1.04.16-1.69.49-2.01,1.37-3.01,3.42-3.01,6.15,0,1.09.28,1.78.84,2.05.72.71,2.29,1.29,4.7,1.72,1.77.27,3.49.52,5.18.74,1.69.22,3.37.49,5.06.82.8.11,1.93.16,3.37.16h1.57c2.73,0,4.86.08,6.38.25,2.09.27,3.73,1.09,4.94,2.46l.12.16c1.28,1.91,1.93,3.69,1.93,5.33,0,2.19-1.53,4.2-4.58,6.03-3.05,1.83-7.51,3.1-13.37,3.81-2.97.33-5.9.49-8.79.49Z"/>
      <path class="cls-3" d="M180.51,125.67c-10.52,0-17.82-2.79-21.92-8.36-2.33-3.77-3.49-9.08-3.49-15.91-.08-1.69-.2-3.31-.36-4.84-.24-1.97-.36-4.02-.36-6.15s.18-4.88.54-8.24c.36-3.36,1.91-6.9,4.64-10.62l.12-.25c2.41-5.58,7.83-8.37,16.26-8.37,3.37,0,7.29.64,11.74,1.93,4.46,1.29,8.13,3.43,11.02,6.44,4.66,5.58,6.98,12.88,6.98,21.9,0,3.55-.44,7.03-1.32,10.42-.48,1.75-.88,3.55-1.2,5.41,0,3.66-.92,6.86-2.77,9.59l-.12.16c-4.26,4.59-10.84,6.89-19.75,6.89ZM183.04,108.04c1.04,0,2.13-1.17,3.25-3.53v-.08c2.09-3.39,3.45-7.54,4.09-12.47.16-.82.24-1.61.24-2.38,0-3.99-1.41-7.19-4.22-9.59l-.24-.08c-2.25-2.24-4.21-3.39-5.9-3.44-2.25.16-3.53.71-3.85,1.64-2.57,5.25-3.85,10.25-3.85,15.01,0,3.28,1.02,6.51,3.07,9.68,2.05,3.17,4.52,4.92,7.41,5.25Z"/>
      <path class="cls-3" d="M228.8,125.83c-1.12,0-2.35-.34-3.67-1.03-1.33-.68-2.49-1.76-3.49-3.24-1-1.48-1.67-2.68-1.99-3.61-2.01-4.87-3.13-9.84-3.37-14.92v-.16c.08-2.73.52-5.47,1.32-8.2.96-3.17,1.45-7.11,1.45-11.81,0-2.51-.08-5.03-.24-7.54l-.12-2.71c0-3.06.96-5.06,2.89-5.99,6.02-2.68,12.2-4.02,18.55-4.02,5.22,0,10.07,1.23,14.57,3.69,2.41,1.37,3.61,3.01,3.61,4.92,0,1.09-.78,2.43-2.35,4.02-1.57,1.59-4.12,2.87-7.65,3.85l-.84.33c2.17.11,3.69.3,4.58.57,4.98,1.53,7.47,4.05,7.47,7.54,0,2.24-1.29,3.96-3.85,5.17-2.17.93-4.58,1.67-7.23,2.21-2.25.44-4.09.96-5.54,1.56-.8.33-1.2.79-1.2,1.39v.9c0,1.42-.28,2.87-.84,4.35-.4.93-1.13,4.7-2.17,11.32-.24,1.7-.68,3.36-1.32,5-.64,1.86-2.01,3.5-4.09,4.92-1.45.98-2.93,1.48-4.46,1.48Z"/>
      <path class="cls-3" d="M282.63,125.83c-1.12,0-2.35-.34-3.67-1.03-1.33-.68-2.49-1.76-3.49-3.24-1-1.48-1.67-2.68-1.99-3.61-2.01-4.87-3.13-9.84-3.37-14.92v-.16c.08-2.73.52-5.47,1.32-8.2.96-3.17,1.45-7.11,1.45-11.81,0-2.51-.08-5.03-.24-7.54l-.12-2.71c0-3.06.96-5.06,2.89-5.99,6.02-2.68,12.2-4.02,18.55-4.02,5.22,0,10.07,1.23,14.57,3.69,2.41,1.37,3.61,3.01,3.61,4.92,0,1.09-.78,2.43-2.35,4.02-1.57,1.59-4.12,2.87-7.65,3.85l-.84.33c2.17.11,3.69.3,4.58.57,4.98,1.53,7.47,4.05,7.47,7.54,0,2.24-1.29,3.96-3.85,5.17-2.17.93-4.58,1.67-7.23,2.21-2.25.44-4.09.96-5.54,1.56-.8.33-1.2.79-1.2,1.39v.9c0,1.42-.28,2.87-.84,4.35-.4.93-1.13,4.7-2.17,11.32-.24,1.7-.68,3.36-1.32,5-.64,1.86-2.01,3.5-4.09,4.92-1.45.98-2.93,1.48-4.46,1.48Z"/>
      <path class="cls-3" d="M370.42,125.67c-1.69,0-3.45-.05-5.3-.16h-.12c-.56-.16-2.93-.25-7.1-.25l-14.21.08-8.67-.08c-4.58,0-7.79-.57-9.63-1.72-.96-.66-1.45-1.61-1.45-2.87,0-.98.48-2.82,1.45-5.5v-.08c.72-1.69,1.76-4.97,3.13-9.84l.24-1.07c1.93-6.23,2.89-12.52,2.89-18.86,0-5.69-1.12-9.76-3.37-12.22v-.08c-1.53-1.75-2.29-3.14-2.29-4.18,0-1.2.84-2.32,2.53-3.36,3.29-1.97,8.07-3.25,14.33-3.85h.72c6.5-.76,12.8-1.15,18.91-1.15,2.57,0,5.18.06,7.83.16,3.37.11,6.54.77,9.51,1.97,6.66,2.62,10,6.23,10,10.82-.64,2.46-2.45,4.38-5.42,5.74l-.6.25c-1.37.49-2.73.74-4.09.74-3.05,0-6.83-1.37-11.32-4.1l-.12-.08c-3.93-2.68-7.59-4.02-10.96-4.02-1.93,0-3.05.16-3.37.49-2.57,1.09-3.85,2.73-3.85,4.92,0,1.48.52,2.93,1.57,4.35,1.85,2.57,6.02,3.85,12.52,3.85l3.97.16c2.97.06,5.94.49,8.91,1.31,4.82,1.42,7.23,3.88,7.23,7.38,0,1.75-.6,3.28-1.81,4.59v.08c-1.2,1.26-3.61,1.89-7.23,1.89-1.69,0-3.35-.04-5-.12-1.65-.08-3.19-.12-4.64-.12-1.12,0-2.61.05-4.46.16-1.45.11-3.01.66-4.7,1.64-2.09,1.59-3.13,3.5-3.13,5.74,0,1.59.68,3.01,2.05,4.26,1.76,1.26,3.97,1.89,6.62,1.89,3.21,0,7.02-.96,11.44-2.87,2.97-1.37,6.1-2.32,9.39-2.87.32-.11.72-.16,1.2-.16,1.45,0,3.05.25,4.82.74,3.13.88,4.7,2.46,4.7,4.76,0,3.23-2.33,6.21-6.98,8.94,0,.05-.04.08-.12.08-3.37,1.75-8.71,2.62-16.02,2.62Z"/>
      <path class="cls-3" d="M450.63,125.67c-1.69,0-3.45-.05-5.3-.16h-.12c-.56-.16-2.93-.25-7.1-.25l-14.21.08-8.67-.08c-4.58,0-7.79-.57-9.63-1.72-.96-.66-1.45-1.61-1.45-2.87,0-.98.48-2.82,1.45-5.5v-.08c.72-1.69,1.76-4.97,3.13-9.84l.24-1.07c1.93-6.23,2.89-12.52,2.89-18.86,0-5.69-1.12-9.76-3.37-12.22v-.08c-1.53-1.75-2.29-3.14-2.29-4.18,0-1.2.84-2.32,2.53-3.36,3.29-1.97,8.07-3.25,14.33-3.85h.72c6.5-.76,12.8-1.15,18.91-1.15,2.57,0,5.18.06,7.83.16,3.37.11,6.54.77,9.51,1.97,6.66,2.62,10,6.23,10,10.82-.64,2.46-2.45,4.38-5.42,5.74l-.6.25c-1.37.49-2.73.74-4.09.74-3.05,0-6.83-1.37-11.32-4.1l-.12-.08c-3.93-2.68-7.59-4.02-10.96-4.02-1.93,0-3.05.16-3.37.49-2.57,1.09-3.85,2.73-3.85,4.92,0,1.48.52,2.93,1.57,4.35,1.85,2.57,6.02,3.85,12.52,3.85l3.97.16c2.97.06,5.94.49,8.91,1.31,4.82,1.42,7.23,3.88,7.23,7.38,0,1.75-.6,3.28-1.81,4.59v.08c-1.2,1.26-3.61,1.89-7.23,1.89-1.69,0-3.35-.04-5-.12-1.65-.08-3.19-.12-4.64-.12-1.12,0-2.61.05-4.46.16-1.45.11-3.01.66-4.7,1.64-2.09,1.59-3.13,3.5-3.13,5.74,0,1.59.68,3.01,2.05,4.26,1.76,1.26,3.97,1.89,6.62,1.89,3.21,0,7.02-.96,11.44-2.87,2.97-1.37,6.1-2.32,9.39-2.87.32-.11.72-.16,1.2-.16,1.45,0,3.05.25,4.82.74,3.13.88,4.7,2.46,4.7,4.76,0,3.23-2.33,6.21-6.98,8.94,0,.05-.04.08-.12.08-3.37,1.75-8.71,2.62-16.02,2.62Z"/>
    </g>
    <g>
      <path class="cls-6" d="M116.44,121.32c-6.26,0-12.89-.98-19.87-2.95-6.99-1.97-12.69-5.52-17.1-10.66-3.21-3.61-4.82-7.68-4.82-12.22,0-1.91.28-3.94.84-6.07,2.81-8.86,11-15.55,24.57-20.09,5.06-1.75,10.48-2.98,16.26-3.69,1.52-.16,3.05-.25,4.58-.25,4.41,0,8.67.79,12.77,2.38h.12c4.5,2.13,7.51,5.3,9.03,9.51.64,1.7.96,3.28.96,4.76,0,2.35-.72,4.54-2.17,6.56l-.12.08c-2.73,3.34-7.11,5.22-13.13,5.66-2.81,0-5.1-.27-6.87-.82-.16,0-.3-.01-.42-.04-.12-.03-.36-.14-.72-.33-.36-.19-2.55-1.03-6.56-2.5-.48,0-1.04.16-1.69.49-2.01,1.37-3.01,3.42-3.01,6.15,0,1.09.28,1.78.84,2.05.72.71,2.29,1.29,4.7,1.72,1.77.27,3.49.52,5.18.74,1.69.22,3.37.49,5.06.82.8.11,1.93.16,3.37.16h1.57c2.73,0,4.86.08,6.38.25,2.09.27,3.73,1.09,4.94,2.46l.12.16c1.28,1.91,1.93,3.69,1.93,5.33,0,2.19-1.53,4.2-4.58,6.03-3.05,1.83-7.51,3.1-13.37,3.81-2.97.33-5.9.49-8.79.49Z"/>
      <path class="cls-6" d="M180.51,125.67c-10.52,0-17.82-2.79-21.92-8.36-2.33-3.77-3.49-9.08-3.49-15.91-.08-1.69-.2-3.31-.36-4.84-.24-1.97-.36-4.02-.36-6.15s.18-4.88.54-8.24c.36-3.36,1.91-6.9,4.64-10.62l.12-.25c2.41-5.58,7.83-8.37,16.26-8.37,3.37,0,7.29.64,11.74,1.93,4.46,1.29,8.13,3.43,11.02,6.44,4.66,5.58,6.98,12.88,6.98,21.9,0,3.55-.44,7.03-1.32,10.42-.48,1.75-.88,3.55-1.2,5.41,0,3.66-.92,6.86-2.77,9.59l-.12.16c-4.26,4.59-10.84,6.89-19.75,6.89ZM183.04,108.04c1.04,0,2.13-1.17,3.25-3.53v-.08c2.09-3.39,3.45-7.54,4.09-12.47.16-.82.24-1.61.24-2.38,0-3.99-1.41-7.19-4.22-9.59l-.24-.08c-2.25-2.24-4.21-3.39-5.9-3.44-2.25.16-3.53.71-3.85,1.64-2.57,5.25-3.85,10.25-3.85,15.01,0,3.28,1.02,6.51,3.07,9.68,2.05,3.17,4.52,4.92,7.41,5.25Z"/>
      <path class="cls-6" d="M228.8,125.83c-1.12,0-2.35-.34-3.67-1.03-1.33-.68-2.49-1.76-3.49-3.24-1-1.48-1.67-2.68-1.99-3.61-2.01-4.87-3.13-9.84-3.37-14.92v-.16c.08-2.73.52-5.47,1.32-8.2.96-3.17,1.45-7.11,1.45-11.81,0-2.51-.08-5.03-.24-7.54l-.12-2.71c0-3.06.96-5.06,2.89-5.99,6.02-2.68,12.2-4.02,18.55-4.02,5.22,0,10.07,1.23,14.57,3.69,2.41,1.37,3.61,3.01,3.61,4.92,0,1.09-.78,2.43-2.35,4.02-1.57,1.59-4.12,2.87-7.65,3.85l-.84.33c2.17.11,3.69.3,4.58.57,4.98,1.53,7.47,4.05,7.47,7.54,0,2.24-1.29,3.96-3.85,5.17-2.17.93-4.58,1.67-7.23,2.21-2.25.44-4.09.96-5.54,1.56-.8.33-1.2.79-1.2,1.39v.9c0,1.42-.28,2.87-.84,4.35-.4.93-1.13,4.7-2.17,11.32-.24,1.7-.68,3.36-1.32,5-.64,1.86-2.01,3.5-4.09,4.92-1.45.98-2.93,1.48-4.46,1.48Z"/>
      <path class="cls-6" d="M282.63,125.83c-1.12,0-2.35-.34-3.67-1.03-1.33-.68-2.49-1.76-3.49-3.24-1-1.48-1.67-2.68-1.99-3.61-2.01-4.87-3.13-9.84-3.37-14.92v-.16c.08-2.73.52-5.47,1.32-8.2.96-3.17,1.45-7.11,1.45-11.81,0-2.51-.08-5.03-.24-7.54l-.12-2.71c0-3.06.96-5.06,2.89-5.99,6.02-2.68,12.2-4.02,18.55-4.02,5.22,0,10.07,1.23,14.57,3.69,2.41,1.37,3.61,3.01,3.61,4.92,0,1.09-.78,2.43-2.35,4.02-1.57,1.59-4.12,2.87-7.65,3.85l-.84.33c2.17.11,3.69.3,4.58.57,4.98,1.53,7.47,4.05,7.47,7.54,0,2.24-1.29,3.96-3.85,5.17-2.17.93-4.58,1.67-7.23,2.21-2.25.44-4.09.96-5.54,1.56-.8.33-1.2.79-1.2,1.39v.9c0,1.42-.28,2.87-.84,4.35-.4.93-1.13,4.7-2.17,11.32-.24,1.7-.68,3.36-1.32,5-.64,1.86-2.01,3.5-4.09,4.92-1.45.98-2.93,1.48-4.46,1.48Z"/>
      <path class="cls-6" d="M370.42,125.67c-1.69,0-3.45-.05-5.3-.16h-.12c-.56-.16-2.93-.25-7.1-.25l-14.21.08-8.67-.08c-4.58,0-7.79-.57-9.63-1.72-.96-.66-1.45-1.61-1.45-2.87,0-.98.48-2.82,1.45-5.5v-.08c.72-1.69,1.76-4.97,3.13-9.84l.24-1.07c1.93-6.23,2.89-12.52,2.89-18.86,0-5.69-1.12-9.76-3.37-12.22v-.08c-1.53-1.75-2.29-3.14-2.29-4.18,0-1.2.84-2.32,2.53-3.36,3.29-1.97,8.07-3.25,14.33-3.85h.72c6.5-.76,12.8-1.15,18.91-1.15,2.57,0,5.18.06,7.83.16,3.37.11,6.54.77,9.51,1.97,6.66,2.62,10,6.23,10,10.82-.64,2.46-2.45,4.38-5.42,5.74l-.6.25c-1.37.49-2.73.74-4.09.74-3.05,0-6.83-1.37-11.32-4.1l-.12-.08c-3.93-2.68-7.59-4.02-10.96-4.02-1.93,0-3.05.16-3.37.49-2.57,1.09-3.85,2.73-3.85,4.92,0,1.48.52,2.93,1.57,4.35,1.85,2.57,6.02,3.85,12.52,3.85l3.97.16c2.97.06,5.94.49,8.91,1.31,4.82,1.42,7.23,3.88,7.23,7.38,0,1.75-.6,3.28-1.81,4.59v.08c-1.2,1.26-3.61,1.89-7.23,1.89-1.69,0-3.35-.04-5-.12-1.65-.08-3.19-.12-4.64-.12-1.12,0-2.61.05-4.46.16-1.45.11-3.01.66-4.7,1.64-2.09,1.59-3.13,3.5-3.13,5.74,0,1.59.68,3.01,2.05,4.26,1.76,1.26,3.97,1.89,6.62,1.89,3.21,0,7.02-.96,11.44-2.87,2.97-1.37,6.1-2.32,9.39-2.87.32-.11.72-.16,1.2-.16,1.45,0,3.05.25,4.82.74,3.13.88,4.7,2.46,4.7,4.76,0,3.23-2.33,6.21-6.98,8.94,0,.05-.04.08-.12.08-3.37,1.75-8.71,2.62-16.02,2.62Z"/>
      <path class="cls-6" d="M450.63,125.67c-1.69,0-3.45-.05-5.3-.16h-.12c-.56-.16-2.93-.25-7.1-.25l-14.21.08-8.67-.08c-4.58,0-7.79-.57-9.63-1.72-.96-.66-1.45-1.61-1.45-2.87,0-.98.48-2.82,1.45-5.5v-.08c.72-1.69,1.76-4.97,3.13-9.84l.24-1.07c1.93-6.23,2.89-12.52,2.89-18.86,0-5.69-1.12-9.76-3.37-12.22v-.08c-1.53-1.75-2.29-3.14-2.29-4.18,0-1.2.84-2.32,2.53-3.36,3.29-1.97,8.07-3.25,14.33-3.85h.72c6.5-.76,12.8-1.15,18.91-1.15,2.57,0,5.18.06,7.83.16,3.37.11,6.54.77,9.51,1.97,6.66,2.62,10,6.23,10,10.82-.64,2.46-2.45,4.38-5.42,5.74l-.6.25c-1.37.49-2.73.74-4.09.74-3.05,0-6.83-1.37-11.32-4.1l-.12-.08c-3.93-2.68-7.59-4.02-10.96-4.02-1.93,0-3.05.16-3.37.49-2.57,1.09-3.85,2.73-3.85,4.92,0,1.48.52,2.93,1.57,4.35,1.85,2.57,6.02,3.85,12.52,3.85l3.97.16c2.97.06,5.94.49,8.91,1.31,4.82,1.42,7.23,3.88,7.23,7.38,0,1.75-.6,3.28-1.81,4.59v.08c-1.2,1.26-3.61,1.89-7.23,1.89-1.69,0-3.35-.04-5-.12-1.65-.08-3.19-.12-4.64-.12-1.12,0-2.61.05-4.46.16-1.45.11-3.01.66-4.7,1.64-2.09,1.59-3.13,3.5-3.13,5.74,0,1.59.68,3.01,2.05,4.26,1.76,1.26,3.97,1.89,6.62,1.89,3.21,0,7.02-.96,11.44-2.87,2.97-1.37,6.1-2.32,9.39-2.87.32-.11.72-.16,1.2-.16,1.45,0,3.05.25,4.82.74,3.13.88,4.7,2.46,4.7,4.76,0,3.23-2.33,6.21-6.98,8.94,0,.05-.04.08-.12.08-3.37,1.75-8.71,2.62-16.02,2.62Z"/>
    </g>
  </g>
</svg>