<?xml version="1.0" encoding="UTF-8"?>
<svg id="Layer_3" data-name="Layer 3" xmlns="http://www.w3.org/2000/svg" viewBox="0 0 1920 1080">
  <defs>
    <style>
      .cls-1 {
        fill: #ebc0ff;
      }

      .cls-1, .cls-2 {
        stroke-width: 0px;
      }

      .cls-2 {
        fill: #ebb6ff;
      }
    </style>
  </defs>
  <rect class="cls-1" width="1920" height="1080"/>
  <g>
    <g>
      <g>
        <g>
          <circle class="cls-2" cx="1393.06" cy="459.83" r="46"/>
          <circle class="cls-2" cx="1431.1" cy="382.84" r="38.88"/>
          <circle class="cls-2" cx="1469.14" cy="305.84" r="31.75"/>
          <circle class="cls-2" cx="1507.18" cy="228.85" r="24.63"/>
          <circle class="cls-2" cx="1545.22" cy="151.86" r="17.5"/>
        </g>
        <g>
          <circle class="cls-2" cx="1353.46" cy="539.9" r="46"/>
          <circle class="cls-2" cx="1315.43" cy="616.89" r="38.88"/>
          <circle class="cls-2" cx="1277.39" cy="693.88" r="31.75"/>
          <circle class="cls-2" cx="1239.35" cy="770.87" r="24.63"/>
          <circle class="cls-2" cx="1201.31" cy="847.86" r="17.5"/>
        </g>
      </g>
      <g>
        <circle class="cls-2" cx="1352.9" cy="336.03" r="46"/>
        <circle class="cls-2" cx="1312.64" cy="417.42" r="46"/>
        <circle class="cls-2" cx="1272.38" cy="498.8" r="46"/>
        <circle class="cls-2" cx="1232.13" cy="580.19" r="46"/>
        <g>
          <circle class="cls-2" cx="1075.78" cy="895.9" r="17.5"/>
          <circle class="cls-2" cx="1104.8" cy="837.32" r="24.63"/>
          <circle class="cls-2" cx="1133.82" cy="778.74" r="31.75"/>
          <circle class="cls-2" cx="1162.85" cy="720.16" r="38.87"/>
          <circle class="cls-2" cx="1191.87" cy="661.58" r="46"/>
        </g>
        <g>
          <circle class="cls-2" cx="1503.75" cy="30.47" r="17.5"/>
          <circle class="cls-2" cx="1474.73" cy="89.05" r="24.62"/>
          <circle class="cls-2" cx="1445.71" cy="147.63" r="31.75"/>
          <circle class="cls-2" cx="1416.69" cy="206.21" r="38.88"/>
          <circle class="cls-2" cx="1387.67" cy="264.79" r="46"/>
        </g>
      </g>
      <g>
        <circle class="cls-2" cx="1270.35" cy="294.97" r="46"/>
        <circle class="cls-2" cx="1230.09" cy="376.35" r="46"/>
        <circle class="cls-2" cx="1189.84" cy="457.74" r="46"/>
        <circle class="cls-2" cx="1149.58" cy="539.13" r="46"/>
        <g>
          <circle class="cls-2" cx="993.23" cy="854.84" r="17.5"/>
          <circle class="cls-2" cx="1022.25" cy="796.26" r="24.63"/>
          <circle class="cls-2" cx="1051.28" cy="737.68" r="31.75"/>
          <circle class="cls-2" cx="1080.3" cy="679.1" r="38.87"/>
          <circle class="cls-2" cx="1109.32" cy="620.52" r="46"/>
        </g>
        <g>
          <circle class="cls-2" cx="1421.2" cy="-10.6" r="17.5"/>
          <circle class="cls-2" cx="1392.18" cy="47.98" r="24.62"/>
          <circle class="cls-2" cx="1363.16" cy="106.56" r="31.75"/>
          <circle class="cls-2" cx="1334.14" cy="165.14" r="38.88"/>
          <circle class="cls-2" cx="1305.12" cy="223.73" r="46"/>
        </g>
      </g>
      <g>
        <g>
          <circle class="cls-2" cx="989" cy="260.57" r="46"/>
          <circle class="cls-2" cx="1027.04" cy="183.58" r="38.87"/>
          <circle class="cls-2" cx="1065.08" cy="106.59" r="31.75"/>
          <circle class="cls-2" cx="1103.12" cy="29.6" r="24.63"/>
        </g>
        <g>
          <circle class="cls-2" cx="949.47" cy="340.67" r="46"/>
          <circle class="cls-2" cx="911.43" cy="417.66" r="38.88"/>
          <circle class="cls-2" cx="873.39" cy="494.65" r="31.75"/>
          <circle class="cls-2" cx="835.35" cy="571.65" r="24.62"/>
          <circle class="cls-2" cx="797.32" cy="648.64" r="17.5"/>
        </g>
      </g>
      <g>
        <circle class="cls-2" cx="1111.73" cy="217.25" r="46"/>
        <circle class="cls-2" cx="1071.55" cy="298.68" r="46"/>
        <circle class="cls-2" cx="1031.37" cy="380.1" r="46"/>
        <circle class="cls-2" cx="991.19" cy="461.53" r="46"/>
        <g>
          <circle class="cls-2" cx="835.44" cy="777.53" r="17.5"/>
          <circle class="cls-2" cx="864.33" cy="718.88" r="24.62"/>
          <circle class="cls-2" cx="893.22" cy="660.24" r="31.75"/>
          <circle class="cls-2" cx="922.12" cy="601.6" r="38.87"/>
          <circle class="cls-2" cx="951.01" cy="542.95" r="46"/>
        </g>
        <g>
          <circle class="cls-2" cx="1204.98" cy="29.06" r="31.75"/>
          <circle class="cls-2" cx="1176.09" cy="87.71" r="38.88"/>
          <circle class="cls-2" cx="1147.19" cy="146.35" r="46"/>
        </g>
      </g>
      <g>
        <circle class="cls-2" cx="1194.5" cy="257.86" r="46"/>
        <circle class="cls-2" cx="1154.32" cy="339.29" r="46"/>
        <circle class="cls-2" cx="1114.14" cy="420.72" r="46"/>
        <circle class="cls-2" cx="1073.96" cy="502.14" r="46"/>
        <g>
          <circle class="cls-2" cx="918.2" cy="818.14" r="17.5"/>
          <circle class="cls-2" cx="947.1" cy="759.5" r="24.62"/>
          <circle class="cls-2" cx="975.99" cy="700.85" r="31.75"/>
          <circle class="cls-2" cx="1004.89" cy="642.21" r="38.87"/>
          <circle class="cls-2" cx="1033.78" cy="583.57" r="46"/>
        </g>
        <g>
          <circle class="cls-2" cx="1316.64" cy="11.03" r="24.62"/>
          <circle class="cls-2" cx="1287.75" cy="69.68" r="31.75"/>
          <circle class="cls-2" cx="1258.86" cy="128.32" r="38.87"/>
          <circle class="cls-2" cx="1229.96" cy="186.96" r="46"/>
        </g>
      </g>
    </g>
    <g>
      <g>
        <g>
          <circle class="cls-2" cx="1752.65" cy="952.1" r="46"/>
          <circle class="cls-2" cx="1792.78" cy="876.18" r="38.87"/>
          <circle class="cls-2" cx="1832.9" cy="800.26" r="31.75"/>
          <circle class="cls-2" cx="1873.03" cy="724.33" r="24.63"/>
          <circle class="cls-2" cx="1913.15" cy="648.41" r="17.5"/>
        </g>
        <g>
          <circle class="cls-2" cx="1710.88" cy="1031.07" r="46"/>
          <circle class="cls-2" cx="1670.75" cy="1106.99" r="38.87"/>
        </g>
      </g>
      <g>
        <circle class="cls-2" cx="1715.88" cy="827.26" r="46"/>
        <circle class="cls-2" cx="1673.41" cy="907.51" r="46"/>
        <circle class="cls-2" cx="1630.95" cy="987.77" r="46"/>
        <circle class="cls-2" cx="1588.49" cy="1068.03" r="46"/>
        <g>
          <circle class="cls-2" cx="1875.02" cy="525.93" r="17.5"/>
          <circle class="cls-2" cx="1844.41" cy="583.69" r="24.62"/>
          <circle class="cls-2" cx="1813.8" cy="641.46" r="31.75"/>
          <circle class="cls-2" cx="1783.19" cy="699.22" r="38.88"/>
          <circle class="cls-2" cx="1752.58" cy="756.99" r="46"/>
        </g>
      </g>
      <g>
        <circle class="cls-2" cx="1634.48" cy="783.96" r="46"/>
        <circle class="cls-2" cx="1592.02" cy="864.21" r="46"/>
        <circle class="cls-2" cx="1549.55" cy="944.47" r="46"/>
        <circle class="cls-2" cx="1507.09" cy="1024.73" r="46"/>
        <circle class="cls-2" cx="1464.62" cy="1104.99" r="46"/>
        <g>
          <circle class="cls-2" cx="1793.62" cy="482.63" r="17.5"/>
          <circle class="cls-2" cx="1763.01" cy="540.39" r="24.63"/>
          <circle class="cls-2" cx="1732.4" cy="598.16" r="31.75"/>
          <circle class="cls-2" cx="1701.79" cy="655.92" r="38.88"/>
          <circle class="cls-2" cx="1671.18" cy="713.69" r="46"/>
        </g>
      </g>
      <g>
        <g>
          <circle class="cls-2" cx="1354.18" cy="741.89" r="46"/>
          <circle class="cls-2" cx="1394.3" cy="665.97" r="38.87"/>
          <circle class="cls-2" cx="1434.43" cy="590.04" r="31.75"/>
          <circle class="cls-2" cx="1474.55" cy="514.12" r="24.63"/>
          <circle class="cls-2" cx="1514.68" cy="438.19" r="17.5"/>
        </g>
        <g>
          <circle class="cls-2" cx="1312.47" cy="820.89" r="46"/>
          <circle class="cls-2" cx="1272.35" cy="896.81" r="38.87"/>
          <circle class="cls-2" cx="1232.22" cy="972.73" r="31.75"/>
          <circle class="cls-2" cx="1192.09" cy="1048.66" r="24.62"/>
        </g>
      </g>
      <g>
        <circle class="cls-2" cx="1478.05" cy="701.94" r="46"/>
        <circle class="cls-2" cx="1435.66" cy="782.24" r="46"/>
        <circle class="cls-2" cx="1393.27" cy="862.54" r="46"/>
        <circle class="cls-2" cx="1350.88" cy="942.83" r="46"/>
        <g>
          <circle class="cls-2" cx="1278.01" cy="1080.97" r="38.87"/>
          <circle class="cls-2" cx="1308.49" cy="1023.13" r="46"/>
        </g>
        <g>
          <circle class="cls-2" cx="1637.36" cy="400.7" r="17.5"/>
          <circle class="cls-2" cx="1606.88" cy="458.53" r="24.62"/>
          <circle class="cls-2" cx="1576.39" cy="516.37" r="31.75"/>
          <circle class="cls-2" cx="1545.91" cy="574.2" r="38.88"/>
          <circle class="cls-2" cx="1515.43" cy="632.03" r="46"/>
        </g>
      </g>
      <g>
        <circle class="cls-2" cx="1559.68" cy="744.8" r="46"/>
        <circle class="cls-2" cx="1517.29" cy="825.1" r="46"/>
        <circle class="cls-2" cx="1474.9" cy="905.39" r="46"/>
        <circle class="cls-2" cx="1432.51" cy="985.69" r="46"/>
        <circle class="cls-2" cx="1390.12" cy="1065.99" r="46"/>
        <g>
          <circle class="cls-2" cx="1718.99" cy="443.56" r="17.5"/>
          <circle class="cls-2" cx="1688.51" cy="501.39" r="24.63"/>
          <circle class="cls-2" cx="1658.02" cy="559.23" r="31.75"/>
          <circle class="cls-2" cx="1627.54" cy="617.06" r="38.88"/>
          <circle class="cls-2" cx="1597.06" cy="674.89" r="46"/>
        </g>
      </g>
    </g>
    <g>
      <g>
        <circle class="cls-2" cx="546.59" cy="-33.67" r="46"/>
        <circle class="cls-2" cx="627.98" cy="6.59" r="46"/>
        <g>
          <circle class="cls-2" cx="943.69" cy="162.93" r="17.5"/>
          <circle class="cls-2" cx="885.1" cy="133.91" r="24.62"/>
          <circle class="cls-2" cx="826.52" cy="104.89" r="31.75"/>
          <circle class="cls-2" cx="767.94" cy="75.87" r="38.88"/>
          <circle class="cls-2" cx="709.36" cy="46.84" r="46"/>
        </g>
      </g>
      <g>
        <circle class="cls-2" cx="306.1" cy="44.43" r="46"/>
        <circle class="cls-2" cx="387.52" cy="84.61" r="46"/>
        <circle class="cls-2" cx="468.95" cy="124.79" r="46"/>
        <circle class="cls-2" cx="550.37" cy="164.97" r="46"/>
        <g>
          <circle class="cls-2" cx="866.37" cy="320.73" r="17.5"/>
          <circle class="cls-2" cx="807.73" cy="291.83" r="24.62"/>
          <circle class="cls-2" cx="749.09" cy="262.94" r="31.75"/>
          <circle class="cls-2" cx="690.44" cy="234.05" r="38.88"/>
          <circle class="cls-2" cx="631.8" cy="205.15" r="46"/>
        </g>
        <g>
          <circle class="cls-2" cx="176.55" cy="-19.92" r="38.88"/>
          <circle class="cls-2" cx="235.2" cy="8.97" r="46"/>
        </g>
      </g>
      <g>
        <circle class="cls-2" cx="346.71" cy="-38.34" r="46"/>
        <circle class="cls-2" cx="428.14" cy="1.84" r="46"/>
        <circle class="cls-2" cx="509.56" cy="42.02" r="46"/>
        <circle class="cls-2" cx="590.99" cy="82.2" r="46"/>
        <g>
          <circle class="cls-2" cx="906.99" cy="237.96" r="17.5"/>
          <circle class="cls-2" cx="848.34" cy="209.06" r="24.62"/>
          <circle class="cls-2" cx="789.7" cy="180.17" r="31.75"/>
          <circle class="cls-2" cx="731.06" cy="151.28" r="38.87"/>
          <circle class="cls-2" cx="672.41" cy="122.38" r="46"/>
        </g>
      </g>
      <g>
        <circle class="cls-2" cx="267.34" cy="126.87" r="46"/>
        <circle class="cls-2" cx="348.73" cy="167.12" r="46"/>
        <circle class="cls-2" cx="430.12" cy="207.38" r="46"/>
        <circle class="cls-2" cx="511.51" cy="247.64" r="46"/>
        <g>
          <circle class="cls-2" cx="827.22" cy="403.98" r="17.5"/>
          <circle class="cls-2" cx="768.64" cy="374.96" r="24.62"/>
          <circle class="cls-2" cx="710.06" cy="345.94" r="31.75"/>
          <circle class="cls-2" cx="651.48" cy="316.92" r="38.88"/>
          <circle class="cls-2" cx="592.9" cy="287.9" r="46"/>
        </g>
        <g>
          <circle class="cls-2" cx="20.36" cy="5.03" r="24.63"/>
          <circle class="cls-2" cx="78.94" cy="34.06" r="31.75"/>
          <circle class="cls-2" cx="137.52" cy="63.08" r="38.88"/>
          <circle class="cls-2" cx="196.1" cy="92.1" r="46"/>
        </g>
      </g>
      <g>
        <circle class="cls-2" cx="189.63" cy="285.48" r="46"/>
        <circle class="cls-2" cx="271.05" cy="325.66" r="46"/>
        <circle class="cls-2" cx="352.48" cy="365.85" r="46"/>
        <circle class="cls-2" cx="433.91" cy="406.03" r="46"/>
        <g>
          <circle class="cls-2" cx="749.9" cy="561.78" r="17.5"/>
          <circle class="cls-2" cx="691.26" cy="532.89" r="24.62"/>
          <circle class="cls-2" cx="632.62" cy="503.99" r="31.75"/>
          <circle class="cls-2" cx="573.97" cy="475.1" r="38.87"/>
          <circle class="cls-2" cx="515.33" cy="446.21" r="46"/>
        </g>
        <g>
          <circle class="cls-2" cx="1.44" cy="192.24" r="31.75"/>
          <circle class="cls-2" cx="60.08" cy="221.13" r="38.88"/>
          <circle class="cls-2" cx="118.73" cy="250.02" r="46"/>
        </g>
      </g>
      <g>
        <circle class="cls-2" cx="230.24" cy="202.71" r="46"/>
        <circle class="cls-2" cx="311.67" cy="242.9" r="46"/>
        <circle class="cls-2" cx="393.09" cy="283.08" r="46"/>
        <circle class="cls-2" cx="474.52" cy="323.26" r="46"/>
        <g>
          <circle class="cls-2" cx="790.52" cy="479.01" r="17.5"/>
          <circle class="cls-2" cx="731.88" cy="450.12" r="24.62"/>
          <circle class="cls-2" cx="673.23" cy="421.23" r="31.75"/>
          <circle class="cls-2" cx="614.59" cy="392.33" r="38.87"/>
          <circle class="cls-2" cx="555.94" cy="363.44" r="46"/>
        </g>
        <g>
          <circle class="cls-2" cx="-16.59" cy="80.58" r="24.63"/>
          <circle class="cls-2" cx="42.06" cy="109.47" r="31.75"/>
          <circle class="cls-2" cx="100.7" cy="138.36" r="38.88"/>
          <circle class="cls-2" cx="159.34" cy="167.26" r="46"/>
        </g>
      </g>
      <g>
        <circle class="cls-2" cx="146.58" cy="369.34" r="46"/>
        <circle class="cls-2" cx="227.97" cy="409.6" r="46"/>
        <circle class="cls-2" cx="309.35" cy="449.86" r="46"/>
        <circle class="cls-2" cx="390.74" cy="490.11" r="46"/>
        <g>
          <circle class="cls-2" cx="706.45" cy="646.46" r="17.5"/>
          <circle class="cls-2" cx="647.87" cy="617.44" r="24.62"/>
          <circle class="cls-2" cx="589.29" cy="588.41" r="31.75"/>
          <circle class="cls-2" cx="530.71" cy="559.39" r="38.88"/>
          <circle class="cls-2" cx="472.13" cy="530.37" r="46"/>
        </g>
        <g>
          <circle class="cls-2" cx="16.76" cy="305.55" r="38.88"/>
          <circle class="cls-2" cx="75.34" cy="334.57" r="46"/>
        </g>
      </g>
      <g>
        <circle class="cls-2" cx="68.86" cy="527.96" r="46"/>
        <circle class="cls-2" cx="150.29" cy="568.14" r="46"/>
        <circle class="cls-2" cx="231.71" cy="608.32" r="46"/>
        <circle class="cls-2" cx="313.14" cy="648.5" r="46"/>
        <g>
          <circle class="cls-2" cx="629.14" cy="804.25" r="17.5"/>
          <circle class="cls-2" cx="570.5" cy="775.36" r="24.63"/>
          <circle class="cls-2" cx="511.85" cy="746.47" r="31.75"/>
          <circle class="cls-2" cx="453.21" cy="717.57" r="38.87"/>
          <circle class="cls-2" cx="394.57" cy="688.68" r="46"/>
        </g>
        <circle class="cls-2" cx="-2.04" cy="492.5" r="46"/>
      </g>
      <g>
        <circle class="cls-2" cx="109.48" cy="445.19" r="46"/>
        <circle class="cls-2" cx="190.9" cy="485.37" r="46"/>
        <circle class="cls-2" cx="272.33" cy="525.55" r="46"/>
        <circle class="cls-2" cx="353.75" cy="565.73" r="46"/>
        <g>
          <circle class="cls-2" cx="669.75" cy="721.49" r="17.5"/>
          <circle class="cls-2" cx="611.11" cy="692.59" r="24.62"/>
          <circle class="cls-2" cx="552.47" cy="663.7" r="31.75"/>
          <circle class="cls-2" cx="493.82" cy="634.8" r="38.87"/>
          <circle class="cls-2" cx="435.18" cy="605.91" r="46"/>
        </g>
        <g>
          <circle class="cls-2" cx="-20.07" cy="380.84" r="38.88"/>
          <circle class="cls-2" cx="38.58" cy="409.73" r="46"/>
        </g>
      </g>
      <g>
        <circle class="cls-2" cx="30.11" cy="610.39" r="46"/>
        <circle class="cls-2" cx="111.5" cy="650.65" r="46"/>
        <circle class="cls-2" cx="192.89" cy="690.91" r="46"/>
        <circle class="cls-2" cx="274.27" cy="731.17" r="46"/>
        <g>
          <circle class="cls-2" cx="589.98" cy="887.51" r="17.5"/>
          <circle class="cls-2" cx="531.4" cy="858.49" r="24.63"/>
          <circle class="cls-2" cx="472.82" cy="829.47" r="31.75"/>
          <circle class="cls-2" cx="414.24" cy="800.45" r="38.88"/>
          <circle class="cls-2" cx="355.66" cy="771.43" r="46"/>
        </g>
        <circle class="cls-2" cx="-41.13" cy="575.63" r="46"/>
      </g>
      <g>
        <circle class="cls-2" cx="33.82" cy="809.19" r="46"/>
        <circle class="cls-2" cx="115.25" cy="849.37" r="46"/>
        <circle class="cls-2" cx="196.67" cy="889.55" r="46"/>
        <g>
          <circle class="cls-2" cx="512.67" cy="1045.31" r="17.5"/>
          <circle class="cls-2" cx="454.03" cy="1016.42" r="24.63"/>
          <circle class="cls-2" cx="395.38" cy="987.52" r="31.75"/>
          <circle class="cls-2" cx="336.74" cy="958.63" r="38.87"/>
          <circle class="cls-2" cx="278.1" cy="929.73" r="46"/>
        </g>
      </g>
      <g>
        <circle class="cls-2" cx="-6.99" cy="686.24" r="46"/>
        <circle class="cls-2" cx="74.43" cy="726.42" r="46"/>
        <circle class="cls-2" cx="155.86" cy="766.6" r="46"/>
        <circle class="cls-2" cx="237.28" cy="806.78" r="46"/>
        <g>
          <circle class="cls-2" cx="553.28" cy="962.54" r="17.5"/>
          <circle class="cls-2" cx="494.64" cy="933.65" r="24.63"/>
          <circle class="cls-2" cx="436" cy="904.75" r="31.75"/>
          <circle class="cls-2" cx="377.35" cy="875.86" r="38.87"/>
          <circle class="cls-2" cx="318.71" cy="846.97" r="46"/>
        </g>
      </g>
    </g>
    <g>
      <circle class="cls-2" cx="-20.59" cy="885.82" r="46"/>
      <circle class="cls-2" cx="60.8" cy="926.08" r="46"/>
      <circle class="cls-2" cx="142.18" cy="966.33" r="46"/>
      <g>
        <circle class="cls-2" cx="399.31" cy="1093.66" r="24.63"/>
        <circle class="cls-2" cx="340.73" cy="1064.63" r="31.75"/>
        <circle class="cls-2" cx="282.15" cy="1035.61" r="38.88"/>
        <circle class="cls-2" cx="223.57" cy="1006.59" r="46"/>
      </g>
    </g>
    <g>
      <circle class="cls-2" cx="-16.84" cy="1084.54" r="46"/>
      <circle class="cls-2" cx="64.58" cy="1124.72" r="46"/>
    </g>
    <g>
      <circle class="cls-2" cx="23.77" cy="1001.77" r="46"/>
      <circle class="cls-2" cx="105.2" cy="1041.95" r="46"/>
      <g>
        <circle class="cls-2" cx="245.26" cy="1111.03" r="38.87"/>
        <circle class="cls-2" cx="186.62" cy="1082.13" r="46"/>
      </g>
    </g>
    <g>
      <g>
        <g>
          <circle class="cls-2" cx="1233.98" cy="781.57" r="46"/>
          <circle class="cls-2" cx="1272.01" cy="704.58" r="38.88"/>
          <circle class="cls-2" cx="1310.05" cy="627.59" r="31.75"/>
          <circle class="cls-2" cx="1348.09" cy="550.6" r="24.63"/>
          <circle class="cls-2" cx="1386.13" cy="473.61" r="17.5"/>
        </g>
        <g>
          <circle class="cls-2" cx="1194.38" cy="861.65" r="46"/>
          <circle class="cls-2" cx="1156.34" cy="938.64" r="38.87"/>
          <circle class="cls-2" cx="1118.3" cy="1015.63" r="31.75"/>
          <circle class="cls-2" cx="1080.26" cy="1092.62" r="24.62"/>
        </g>
      </g>
      <g>
        <circle class="cls-2" cx="1193.81" cy="657.78" r="46"/>
        <circle class="cls-2" cx="1153.55" cy="739.16" r="46"/>
        <circle class="cls-2" cx="1113.3" cy="820.55" r="46"/>
        <circle class="cls-2" cx="1073.04" cy="901.94" r="46"/>
        <g>
          <circle class="cls-2" cx="974.74" cy="1100.49" r="31.75"/>
          <circle class="cls-2" cx="1003.76" cy="1041.91" r="38.87"/>
          <circle class="cls-2" cx="1032.78" cy="983.33" r="46"/>
        </g>
        <g>
          <circle class="cls-2" cx="1344.66" cy="352.21" r="17.5"/>
          <circle class="cls-2" cx="1315.64" cy="410.79" r="24.62"/>
          <circle class="cls-2" cx="1286.62" cy="469.37" r="31.75"/>
          <circle class="cls-2" cx="1257.6" cy="527.95" r="38.88"/>
          <circle class="cls-2" cx="1228.58" cy="586.53" r="46"/>
        </g>
      </g>
      <g>
        <circle class="cls-2" cx="1111.26" cy="616.71" r="46"/>
        <circle class="cls-2" cx="1071.01" cy="698.1" r="46"/>
        <circle class="cls-2" cx="1030.75" cy="779.49" r="46"/>
        <circle class="cls-2" cx="990.49" cy="860.88" r="46"/>
        <g>
          <circle class="cls-2" cx="892.19" cy="1059.42" r="31.75"/>
          <circle class="cls-2" cx="921.21" cy="1000.84" r="38.87"/>
          <circle class="cls-2" cx="950.23" cy="942.26" r="46"/>
        </g>
        <g>
          <circle class="cls-2" cx="1262.12" cy="311.15" r="17.5"/>
          <circle class="cls-2" cx="1233.09" cy="369.73" r="24.62"/>
          <circle class="cls-2" cx="1204.07" cy="428.31" r="31.75"/>
          <circle class="cls-2" cx="1175.05" cy="486.89" r="38.87"/>
          <circle class="cls-2" cx="1146.03" cy="545.47" r="46"/>
        </g>
      </g>
      <g>
        <g>
          <circle class="cls-2" cx="829.92" cy="582.32" r="46"/>
          <circle class="cls-2" cx="867.95" cy="505.32" r="38.88"/>
          <circle class="cls-2" cx="905.99" cy="428.33" r="31.75"/>
          <circle class="cls-2" cx="944.03" cy="351.34" r="24.63"/>
          <circle class="cls-2" cx="982.07" cy="274.35" r="17.5"/>
        </g>
        <g>
          <circle class="cls-2" cx="790.38" cy="662.42" r="46"/>
          <circle class="cls-2" cx="752.34" cy="739.41" r="38.88"/>
          <circle class="cls-2" cx="714.3" cy="816.4" r="31.75"/>
          <circle class="cls-2" cx="676.27" cy="893.39" r="24.62"/>
          <circle class="cls-2" cx="638.23" cy="970.38" r="17.5"/>
        </g>
      </g>
      <g>
        <circle class="cls-2" cx="952.65" cy="539" r="46"/>
        <circle class="cls-2" cx="912.46" cy="620.42" r="46"/>
        <circle class="cls-2" cx="872.28" cy="701.85" r="46"/>
        <circle class="cls-2" cx="832.1" cy="783.27" r="46"/>
        <g>
          <circle class="cls-2" cx="705.24" cy="1040.63" r="24.63"/>
          <circle class="cls-2" cx="734.13" cy="981.99" r="31.75"/>
          <circle class="cls-2" cx="763.03" cy="923.34" r="38.87"/>
          <circle class="cls-2" cx="791.92" cy="864.7" r="46"/>
        </g>
        <g>
          <circle class="cls-2" cx="1103.68" cy="233.52" r="17.5"/>
          <circle class="cls-2" cx="1074.79" cy="292.17" r="24.63"/>
          <circle class="cls-2" cx="1045.89" cy="350.81" r="31.75"/>
          <circle class="cls-2" cx="1017" cy="409.45" r="38.88"/>
          <circle class="cls-2" cx="988.1" cy="468.1" r="46"/>
        </g>
      </g>
      <g>
        <circle class="cls-2" cx="1035.42" cy="579.61" r="46"/>
        <circle class="cls-2" cx="995.23" cy="661.04" r="46"/>
        <circle class="cls-2" cx="955.05" cy="742.46" r="46"/>
        <circle class="cls-2" cx="914.87" cy="823.89" r="46"/>
        <g>
          <circle class="cls-2" cx="788.01" cy="1081.24" r="24.62"/>
          <circle class="cls-2" cx="816.9" cy="1022.6" r="31.75"/>
          <circle class="cls-2" cx="845.8" cy="963.96" r="38.87"/>
          <circle class="cls-2" cx="874.69" cy="905.31" r="46"/>
        </g>
        <g>
          <circle class="cls-2" cx="1186.45" cy="274.14" r="17.5"/>
          <circle class="cls-2" cx="1157.55" cy="332.78" r="24.62"/>
          <circle class="cls-2" cx="1128.66" cy="391.42" r="31.75"/>
          <circle class="cls-2" cx="1099.77" cy="450.07" r="38.87"/>
          <circle class="cls-2" cx="1070.87" cy="508.71" r="46"/>
        </g>
      </g>
    </g>
  </g>
</svg>