<?xml version="1.0" encoding="UTF-8"?>
<svg id="Layer_7" data-name="Layer 7" xmlns="http://www.w3.org/2000/svg" viewBox="0 0 1920 1080">
  <defs>
    <style>
      .cls-1 {
        fill: #9f92ff;
      }

      .cls-1, .cls-2 {
        stroke-width: 0px;
      }

      .cls-2 {
        fill: #fff;
      }
    </style>
  </defs>
  <rect class="cls-1" width="1920" height="1080"/>
  <g>
    <g>
      <path class="cls-2" d="M1510.61,347c-24.63,0-39.28,20.47-39.28,44.1s13.68,41.89,34.4,44.41v-56.7h50.03v124.1c-15.05,17.01-34.2,27.09-54.92,27.09-49.06,0-88.93-56.38-88.93-125.99s39.87-125.99,88.93-125.99c20.72,0,39.87,10.08,54.92,27.09v60.16c-17.2-13.23-32.44-18.27-45.15-18.27Z"/>
      <path class="cls-2" d="M1709.18,440.55c0,.63.2,1.57.2,2.2s-.2,1.58-.2,2.21v85.05h-58.63v-110.24c0-13.54-11.53-15.75-19.15-15.75-3.71,0-6.45.63-6.65.63v125.36h-59.42v-246.32c0-.63,25.41-5.67,54.92-5.67,40.65,0,88.73,9.76,88.73,53.55,0,39.06-33.42,47.25-55.51,48.82,34.4,0,54.92,17.64,55.7,60.16ZM1631,336.29c-2.35,0-4.49.32-6.06.63v27.09c.98.32,2.15.32,3.52.32,8.21,0,23.06-4.09,23.06-14.8,0-9.76-11.92-13.23-20.52-13.23Z"/>
      <path class="cls-2" d="M1758.62,530.01h-41.24l38.11-252.62h60.2l38.11,252.62h-60.39l-3.32-22.99h-27.95l-3.52,22.99ZM1776.21,414.09l-8.01,52.29h15.83l-7.82-52.29Z"/>
      <path class="cls-2" d="M1921.82,372.83v-35.91c.5-.1,1.15-.27,1.86-.44v-58.13c-6.72-.32-13.14-.33-18.87-.33-17,0-32.84,2.52-42.41,4.09v247.89h59.22v-120.95c.63,0,1.32-.03,2.06-.07v-35.61c-.8-.21-1.5-.42-1.86-.54Z"/>
    </g>
    <g>
      <path class="cls-2" d="M1538.24,685.72c0,60.87-32.64,110.17-72.97,110.17-17.6,0-35.2-1.1-52.81-2.2v-215.93c21.7-1.1,36.57-2.2,52.81-2.2,40.16,0,72.97,49.3,72.97,110.17ZM1486.29,677.74c0-22.86-7.18-38.28-22.05-39.11v74.92c13.33,0,22.05-12.39,22.05-35.8Z"/>
      <path class="cls-2" d="M1545.93,575.55h117.92v52.05h-65.97v12.12h65.97v52.05h-65.97v21.76h65.97v82.35h-117.92v-220.34Z"/>
      <path class="cls-2" d="M1735.29,795.89c-32.81,0-62.89-15.97-62.89-15.97v-88.13c-.17,0-.17-.28-.17-.28,0-.27,39.82,23.14,64.09,23.14,10.6,0,18.12-4.13,18.12-17.08,0-32.5-79.47,5.23-79.47-64.17,0-2.48.17-5.51.34-8.26,2.56-32.78,30.59-49.58,60.16-49.58,21.7,0,43.24,7.44,43.24,7.44v56.74s-23.93-12.67-39.99-12.67c-8.03,0-14.36,3.03-14.36,12.67,0,21.76,73.83,5.23,73.83,73.81s-30.08,82.35-62.89,82.35Z"/>
      <path class="cls-2" d="M1805.69,575.55h51.95v220.34h-51.95v-220.34Z"/>
      <path class="cls-2" d="M1923.68,650.87v-71.91c-33.61,12.14-58.52,55.32-58.52,106.76s24.91,94.63,58.52,106.76v-93.78c-4.2-6.46-6.57-14.74-6.57-24.28,0-8.73,2.3-16.96,6.57-23.56Z"/>
    </g>
  </g>
  <g>
    <path class="cls-2" d="M140.92,277.39v73.42h34.41v-73.42h59.44v252.08h-59.44v-119.11h-34.41v119.11h-59.44v-252.08h59.44Z"/>
    <g>
      <path class="cls-2" d="M72.88,339.15h0c0,3.17,0-2.84,0,0Z"/>
      <path class="cls-2" d="M1.03,277.72v58.15c1.52-.38,3.38-.81,4.98-.81,8.6,0,23.85,3.78,24.44,17.02,0,17.96-17.4,21.43-25.61,21.43-.86,0-2.47-.37-3.81-.72v35.63c18.81-1.2,71.85-18.01,71.85-69.25-.08-51-39.36-59.89-71.85-61.44Z"/>
      <path class="cls-2" d="M244.54,277.39h59.44v252.08h-59.44v-252.08Z"/>
      <path class="cls-2" d="M409.17,336.95c-23.27,0-36.95,25.21-37.15,53.57v.31c0,26.47,16.03,44.43,39.69,44.43,13.1,0,28.55-5.67,44.77-18.28v85.39c-15.05,17.02-34.22,27.1-54.94,27.1-49.08,0-88.96-56.4-88.96-126.04s39.89-126.04,88.96-126.04c20.73,0,39.89,10.08,54.94,27.1v60.18c-18.18-19.85-34.22-27.73-47.32-27.73Z"/>
      <path class="cls-2" d="M20.28,795.46c18.12,0,34.88-8.82,48.04-23.7v-108.56H24.55v49.59c-10.08-1.23-18.25-6.46-23.52-14.56v93.81c6.16,2.22,12.61,3.41,19.25,3.41Z"/>
      <path class="cls-2" d="M28.83,635.38c11.11,0,24.45,4.41,39.49,15.98v-52.63c-13.16-14.88-29.92-23.69-48.04-23.69-6.64,0-13.09,1.18-19.25,3.41v71.94c5.83-9.02,15.36-15,27.8-15Z"/>
      <path class="cls-2" d="M202.52,795.46h-52.83l-21.2-82.38v82.38h-51.8v-220.42h51.8l21.2,51.8v-51.8h52.83v220.42Z"/>
      <path class="cls-2" d="M211.07,575.04h117.96v52.07h-65.99v12.12h65.99v52.07h-65.99v21.77h65.99v82.38h-117.96v-220.42Z"/>
      <path class="cls-2" d="M463.58,717.21c0,.55.17,1.38.17,1.93s-.17,1.38-.17,1.93v74.39h-51.29v-96.43c0-11.85-10.09-13.78-16.75-13.78-3.25,0-5.64.55-5.81.55v109.66h-51.97v-215.46c0-.55,22.22-4.96,48.04-4.96,35.56,0,77.62,8.54,77.62,46.84,0,34.16-29.23,41.33-48.55,42.71,30.09,0,48.04,15.43,48.72,52.62ZM395.19,626.01c-2.05,0-3.93.28-5.3.55v23.7c.86.28,1.88.28,3.08.28,7.18,0,20.17-3.58,20.17-12.95,0-8.54-10.43-11.57-17.95-11.57Z"/>
    </g>
  </g>
</svg>