<?xml version="1.0" encoding="UTF-8"?>
<svg id="Layer_1" data-name="Layer 1" xmlns="http://www.w3.org/2000/svg" viewBox="0 0 353 725.36">
  <defs>
    <style>
      .cls-1 {
        fill: #f6b1cf;
        stroke: #231f20;
        stroke-miterlimit: 10;
      }
    </style>
  </defs>
  <path class="cls-1" d="M46.41,613.12c-1.77,0-3.53-.64-4.95-1.92-2.76-2.49-3.25-6.53-1.17-9.61l16.06-23.79-6.62.27c-3.72,0-6.8-2.67-7.31-6.36-.5-3.54,1.54-6.84,4.88-8l7.12-3.12-14.94-14.78c-2.46-2.27-3.09-5.88-1.53-8.86,1.59-3.03,5.02-4.57,8.35-3.73l25.95,6.97,7.02-15.42c1.15-2.86,3.93-4.73,7.05-4.63,3.19.09,5.95,2.2,6.87,5.25l6.56,21.79,19.64,2.58c3.07.4,5.52,2.62,6.22,5.64.71,3.02-.5,6.08-3.07,7.81l-15.78,10.6,11.76,18.37c1.87,2.93,1.48,6.7-.97,9.17-2.44,2.47-6.21,2.91-9.16,1.07l-26.63-16.61-30.63,25.57c-1.39,1.16-3.06,1.73-4.73,1.73ZM75.71,566.98l-16.8,24.89,22-18.37,22.92,14.3-10.78-16.84,18.15-12.19-19.17-2.52-6.42-21.31-7.79,17.1-24.46-6.57,18.56,18.36-8.32,3.64,12.11-.5Z"/>
  <path class="cls-1" d="M171.02,691.48c-1.85,0-3.64-.83-4.87-2.35l-20.72-25.84-37.56,19.38c-2.74,1.41-6.06.64-7.9-1.82-1.84-2.47-1.63-5.87.5-8.09l18.31-19.08-18.32-5.26c-2.73-.78-4.59-3.31-4.54-6.15.06-2.83,2.02-5.29,4.77-5.96l29.45-7.24,3.81-23.35c.42-2.6,2.37-4.62,4.96-5.14,2.59-.52,5.16.6,6.55,2.83l14.66,23.56,29.82-11.6c2.69-1.05,5.74-.13,7.4,2.24s1.49,5.54-.41,7.72l-23.04,26.36,3.38,32.86c.29,2.79-1.26,5.38-3.86,6.44-.78.32-1.6.48-2.4.48ZM148.11,650.64l17.92,22.35-2.53-24.6,15.9-18.19-23.38,9.09-13.79-22.16-3.28,20.06-22.26,5.47,20.79,5.97-14.24,14.84,24.88-12.83Z"/>
  <path class="cls-1" d="M177.71,574.56c-1.59,0-3.15-.74-4.15-2.1-1.54-2.1-1.27-5.02.63-6.8l37.27-34.99-27.3-7.58c-2.46-.68-4.06-3.1-3.72-5.64.34-2.54,2.53-4.46,5.1-4.46h18.12l-6.29-39.11c-.35-2.16.71-4.3,2.63-5.34,1.92-1.04,4.29-.75,5.91.71l30.51,27.73,22.85-33.48c1.34-1.95,3.82-2.74,6.03-1.93,2.22.82,3.59,3.03,3.33,5.38l-4.8,44.43h46.95c2.47,0,4.59,1.76,5.05,4.19s-.88,4.84-3.17,5.74l-50.12,19.72,9.03,21.97c.93,2.25.13,4.87-1.9,6.23-2.03,1.36-4.75,1.09-6.48-.62l-26.7-26.44-56.23,31.71c-.79.45-1.66.66-2.52.66ZM181.04,572.95h0s0,0,0,0ZM215.12,521.31l16.14,4.48-20.92,19.64,27.79-15.67,15.07,14.92-3.79-9.23,35.74-14.06h-32.48l3.92-36.24-18.4,26.97-28.75-26.13,5.68,35.32ZM186.82,513.45h.02s-.02,0-.02,0Z"/>
  <path class="cls-1" d="M162.7,494.02c-.42,0-.84-.05-1.26-.14-2.65-.61-4.44-3.02-4.26-5.74l3.79-57.43-41.74-16.7c-2.21-.88-3.6-3.08-3.46-5.46.15-2.38,1.8-4.39,4.11-5l53.17-13.87v-45.34c0-2.63,1.8-4.85,4.37-5.4,2.58-.55,5.12.76,6.19,3.16l20.56,46.44h30.83c2.34,0,4.43,1.48,5.21,3.69.77,2.21.07,4.67-1.76,6.13l-20.48,16.38,25.19,33.83c1.57,2.11,1.43,5.05-.33,7-1.76,1.95-4.68,2.38-6.93,1.03l-43.56-26.14-24.53,60.12c-.86,2.12-2.89,3.43-5.09,3.43ZM135.59,409.79l35.83,14.33-2.45,37.1,18.5-45.32,34.11,20.46-17.41-23.38,18.04-14.43h-24.56l-14.6-33v31.86l-47.45,12.38Z"/>
  <path class="cls-1" d="M190.96,357.32c-1.55,0-3.08-.6-4.24-1.77-1.97-1.98-2.3-5.02-.82-7.38l17.54-27.93-41.95-18.18c-2.51-1.09-3.96-3.73-3.52-6.43.43-2.7,2.64-4.76,5.36-5l48.36-4.33v-10c0-2.33,1.37-4.46,3.49-5.43,2.12-.97,4.63-.61,6.39.91l23.23,20.02h23.49c2.51,0,4.71,1.52,5.59,3.87.88,2.35.23,4.94-1.66,6.6l-22.3,19.51,12.74,26.82c1.19,2.5.52,5.46-1.63,7.2-2.15,1.74-5.19,1.79-7.39.11l-26.24-20.03-33.31,20.55c-.98.6-2.06.9-3.14.9ZM179.99,299.17l38.11,16.51-14.53,23.14,24.43-15.08,18.5,14.12-8.86-18.64,19.93-17.44h-16.49l-19.39-16.71v10.36l-41.71,3.73Z"/>
</svg>